<?xml version="1.0" encoding="UTF-8"?> <!-- Generator: Adobe Illustrator 28.2.0, SVG Export Plug-In . SVG Version: 6.00 Build 0) --> <svg xmlns="http://www.w3.org/2000/svg" xmlns:xlink="http://www.w3.org/1999/xlink" id="Layer_1" x="0px" y="0px" viewBox="0 0 181 180" style="enable-background:new 0 0 181 180;" xml:space="preserve"> <style type="text/css"> .st0{fill:none;stroke:#FFFFFF;} .st1{fill-rule:evenodd;clip-rule:evenodd;fill:#FFFFFF;} .st2{fill:#FF6400;} </style> <circle class="st0" cx="91" cy="90" r="69.5"></circle> <path class="st1" d="M160.9,92l-1-0.1c0.1-0.6,0.1-1.3,0.1-1.9s0-1.3-0.1-1.9l1-0.1c0.1,0.7,0.1,1.3,0.1,2S160.9,91.3,160.9,92z M160.2,84.1l-1,0.3c-0.3-1.2-0.7-2.4-1.3-3.6l0.9-0.4C159.4,81.5,159.9,82.8,160.2,84.1z M157,76.7l-0.9,0.5 c-0.7-1.1-1.4-2.1-2.2-3.2l0.8-0.6C155.6,74.5,156.3,75.6,157,76.7z M152.1,70.5l-0.7,0.7c-0.9-0.9-1.8-1.8-2.9-2.7l0.6-0.8 C150.2,68.6,151.2,69.6,152.1,70.5z M146,65.3l-0.6,0.8c-1-0.8-2.1-1.5-3.3-2.2l0.5-0.8C143.8,63.8,144.9,64.5,146,65.3z M139.2,61 l-0.5,0.9c-1.1-0.6-2.3-1.2-3.5-1.8l0.4-0.9C136.9,59.8,138.1,60.4,139.2,61z M132,57.6l-0.4,0.9c-1.2-0.5-2.4-1-3.7-1.4l0.3-0.9 C129.5,56.6,130.8,57.1,132,57.6z M124.5,54.9l-0.3,1c-1.2-0.4-2.5-0.8-3.8-1.1l0.3-1C121.9,54.1,123.2,54.5,124.5,54.9z M116.8,52.8l-0.2,1c-1.3-0.3-2.6-0.6-3.9-0.8l0.2-1C114.2,52.2,115.5,52.5,116.8,52.8z M108.9,51.3l-0.1,1 c-1.3-0.2-2.6-0.4-3.9-0.5l0.1-1C106.3,51,107.6,51.1,108.9,51.3z M100.9,50.4l-0.1,1c-1.3-0.1-2.6-0.2-4-0.3l0-1 C98.3,50.2,99.6,50.3,100.9,50.4z M93,50l0,1c-0.7,0-1.3,0-2,0c-0.7,0-1.3,0-2,0l0-1c0.7,0,1.3,0,2,0S92.3,50,93,50z M84.9,50.1l0,1 c-1.3,0.1-2.7,0.2-4,0.3l-0.1-1C82.3,50.3,83.6,50.2,84.9,50.1z M77,50.8l0.1,1c-1.3,0.2-2.6,0.3-3.9,0.5l-0.1-1 C74.3,51.1,75.6,51,77,50.8z M69.1,52l0.2,1c-1.3,0.2-2.6,0.5-3.9,0.8l-0.2-1C66.4,52.5,67.7,52.2,69.1,52z M61.3,53.8l0.3,1 c-1.3,0.3-2.6,0.7-3.8,1.1l-0.3-1C58.7,54.5,60,54.1,61.3,53.8z M53.6,56.2c-1.3,0.5-2.5,0.9-3.7,1.4l0.4,0.9c1.2-0.5,2.4-1,3.7-1.4 L53.6,56.2z M46.2,59.2l0.4,0.9c-1.2,0.6-2.4,1.2-3.5,1.8L42.7,61C43.8,60.4,45,59.8,46.2,59.2z M39.2,63l0.5,0.8 c-1.1,0.7-2.2,1.4-3.3,2.2l-0.6-0.8C37,64.5,38.1,63.8,39.2,63z M32.8,67.8l0.6,0.8c-1,0.9-2,1.8-2.9,2.7l-0.7-0.7 C30.7,69.6,31.7,68.6,32.8,67.8z M27.2,73.5l0.8,0.6c-0.8,1-1.6,2.1-2.2,3.2l-0.9-0.5C25.6,75.6,26.3,74.5,27.2,73.5z M23,80.3 l0.9,0.4c-0.5,1.2-0.9,2.4-1.3,3.6l-1-0.3C22.1,82.8,22.5,81.5,23,80.3z M21,88C21,88.7,21,89.3,21,90s0,1.3,0.1,2l1-0.1 C22,91.3,22,90.6,22,90s0-1.3,0.1-1.9L21,88z M21.7,95.9l1-0.3c0.3,1.2,0.7,2.4,1.3,3.6L23,99.7C22.5,98.5,22.1,97.2,21.7,95.9z M24.9,103.3l0.9-0.5c0.7,1.1,1.4,2.1,2.2,3.2l-0.8,0.6C26.3,105.5,25.6,104.4,24.9,103.3z M29.8,109.5l0.7-0.7 c0.9,0.9,1.8,1.8,2.9,2.7l-0.6,0.8C31.7,111.4,30.7,110.4,29.8,109.5z M35.9,114.7l0.6-0.8c1,0.8,2.1,1.5,3.3,2.2l-0.5,0.8 C38.1,116.2,37,115.5,35.9,114.7z M42.7,119l0.5-0.9c1.1,0.6,2.3,1.2,3.5,1.8l-0.4,0.9C45,120.2,43.8,119.6,42.7,119z M49.9,122.4 l0.4-0.9c1.2,0.5,2.4,1,3.7,1.4l-0.3,0.9C52.4,123.4,51.1,122.9,49.9,122.4z M57.4,125.1l0.3-1c1.2,0.4,2.5,0.8,3.8,1.1l-0.3,1 C60,125.9,58.7,125.5,57.4,125.1z M65.1,127.2l0.2-1c1.3,0.3,2.6,0.6,3.9,0.8l-0.2,1C67.7,127.8,66.4,127.5,65.1,127.2z M73,128.7 l0.1-1c1.3,0.2,2.6,0.4,3.9,0.5l-0.1,1C75.6,129,74.3,128.9,73,128.7z M81,129.6l0.1-1c1.3,0.1,2.6,0.2,4,0.3l0,1 C83.6,129.8,82.3,129.7,81,129.6z M88.9,130l0-1c0.7,0,1.3,0,2,0c0.7,0,1.3,0,2,0l0,1c-0.7,0-1.3,0-2,0S89.6,130,88.9,130z M97,129.9l0-1c1.3-0.1,2.6-0.2,4-0.3l0.1,1C99.6,129.7,98.3,129.8,97,129.9z M104.9,129.2l-0.1-1c1.3-0.2,2.6-0.3,3.9-0.5l0.1,1 C107.6,128.9,106.3,129,104.9,129.2z M112.8,128l-0.2-1c1.3-0.2,2.6-0.5,3.9-0.8l0.2,1C115.5,127.5,114.2,127.8,112.8,128z M120.6,126.2l-0.3-1c1.3-0.3,2.6-0.7,3.8-1.1l0.3,1C123.2,125.5,121.9,125.9,120.6,126.2z M128.3,123.8l-0.3-0.9 c1.3-0.5,2.5-0.9,3.7-1.4l0.4,0.9C130.8,122.9,129.5,123.4,128.3,123.8z M135.7,120.8l-0.4-0.9c1.2-0.6,2.4-1.2,3.5-1.8l0.5,0.9 C138.1,119.6,136.9,120.2,135.7,120.8z M142.7,117l-0.5-0.8c1.1-0.7,2.2-1.4,3.3-2.2l0.6,0.8C144.9,115.5,143.8,116.2,142.7,117z M149.1,112.2l-0.6-0.8c1-0.9,2-1.8,2.9-2.7l0.7,0.7C151.2,110.4,150.2,111.4,149.1,112.2z M154.7,106.5l-0.8-0.6 c0.8-1,1.6-2.1,2.2-3.2l0.9,0.5C156.3,104.4,155.6,105.5,154.7,106.5z M158.9,99.7l-0.9-0.4c0.5-1.2,0.9-2.4,1.3-3.6l1,0.3 C159.9,97.2,159.4,98.5,158.9,99.7z"></path> <circle class="st2" cx="21" cy="90" r="10"></circle> </svg> 