<?xml version="1.0" encoding="UTF-8"?> <!-- Generator: Adobe Illustrator 26.0.3, SVG Export Plug-In . SVG Version: 6.00 Build 0) --> <svg xmlns="http://www.w3.org/2000/svg" xmlns:xlink="http://www.w3.org/1999/xlink" id="Layer_1" x="0px" y="0px" viewBox="0 0 680 694.4" style="enable-background:new 0 0 680 694.4;" xml:space="preserve"> <style type="text/css"> .st0{opacity:0.4;} .st1{fill:none;stroke:url(#SVGID_1_);stroke-width:0.5669;} .st2{fill:none;stroke:url(#SVGID_00000130617535308179990680000009925713705066724772_);stroke-width:0.5669;} .st3{fill:none;stroke:url(#SVGID_00000000209849442242008570000008499894961764371346_);stroke-width:0.5669;} .st4{fill:none;stroke:url(#SVGID_00000097477498769001580200000009746519310843890072_);stroke-width:0.5669;} .st5{fill:none;stroke:url(#SVGID_00000069388537453208660900000006226414063109567151_);stroke-width:0.5669;} .st6{fill:none;stroke:url(#SVGID_00000042014465439037774920000007155117742125874601_);stroke-width:0.5669;} .st7{fill:none;stroke:url(#SVGID_00000174574427381959470750000009106247012352456066_);stroke-width:0.5669;} .st8{fill:none;stroke:url(#SVGID_00000119118749994327009640000017587053461196424625_);stroke-width:0.5669;} .st9{fill:none;stroke:url(#SVGID_00000101079837089512575990000016687326107316656527_);stroke-width:0.5669;} .st10{fill:none;stroke:url(#SVGID_00000044140559233461482130000014792256536906405544_);stroke-width:0.5669;} .st11{fill:none;stroke:url(#SVGID_00000094602254584900468710000004815414479605431472_);stroke-width:0.5669;} .st12{fill:none;stroke:url(#SVGID_00000118394693305311798070000008007179065407215774_);stroke-width:0.5669;} .st13{fill:none;stroke:url(#SVGID_00000003812215376004281600000006422140360483723651_);stroke-width:0.5669;} .st14{fill:none;stroke:url(#SVGID_00000093142304199281052890000010260680143129937846_);stroke-width:0.5669;} .st15{fill:none;stroke:url(#SVGID_00000014630725235853634770000007975767895023397549_);stroke-width:0.5669;} .st16{fill:none;stroke:url(#SVGID_00000097497259031568077110000012327343407901501342_);stroke-width:0.5669;} .st17{fill:none;stroke:url(#SVGID_00000000938368014634729080000017544355018993754286_);stroke-width:0.5669;} .st18{fill:none;stroke:url(#SVGID_00000003068165987119800430000003655099605421137031_);stroke-width:0.5669;} .st19{fill:none;stroke:url(#SVGID_00000115516812934701258530000012641713580519283096_);stroke-width:0.5669;} .st20{fill:none;stroke:url(#SVGID_00000037650395750579963460000002014013605820905600_);stroke-width:0.5669;} </style> <g class="st0"> <linearGradient id="SVGID_1_" gradientUnits="userSpaceOnUse" x1="139.5212" y1="299.3605" x2="453.8513" y2="364.7605" gradientTransform="matrix(1 0 0 -1 0 637.8898)"> <stop offset="0.2826" style="stop-color:#FFFFFF"></stop> <stop offset="1" style="stop-color:#6600E6"></stop> </linearGradient> <path class="st1" d="M50.6,390.3c17.6-3.7,28.9-20.9,25.3-38.6c-3.7-17.6-20.9-29-38.6-25.3c-17.6,3.7-28.9,20.9-25.3,38.6 C15.7,382.7,33,394,50.6,390.3z"></path> <linearGradient id="SVGID_00000076603703790063400530000011466638881717032850_" gradientUnits="userSpaceOnUse" x1="138.5177" y1="293.7792" x2="767.0227" y2="424.5491" gradientTransform="matrix(1 0 0 -1 0 637.8898)"> <stop offset="0.2826" style="stop-color:#FFFFFF"></stop> <stop offset="1" style="stop-color:#6600E6"></stop> </linearGradient> <path style="fill:none;stroke:url(#SVGID_00000076603703790063400530000011466638881717032850_);stroke-width:0.5669;" d=" M90.1,421.1c35.4-7.4,58.1-42,50.7-77.5c-7.4-35.4-42-58.1-77.4-50.8c-35.4,7.4-58.1,42-50.7,77.5 C20.1,405.7,54.8,428.4,90.1,421.1z"></path> <linearGradient id="SVGID_00000181077859679145321240000008382653764724145040_" gradientUnits="userSpaceOnUse" x1="772.9738" y1="145.0638" x2="1715.8248" y2="-50.1861" gradientTransform="matrix(1 0 0 -1 0 637.8898)"> <stop offset="0.2826" style="stop-color:#FFFFFF"></stop> <stop offset="1" style="stop-color:#6600E6"></stop> </linearGradient> <path style="fill:none;stroke:url(#SVGID_00000181077859679145321240000008382653764724145040_);stroke-width:0.5669;" d=" M89.8,451.8c53.2,11,105.2-23.2,116.2-76.4c11-53.2-23.2-105.2-76.3-116.2c-53.2-11-105.2,23.2-116.2,76.4 C2.4,388.7,36.6,440.8,89.8,451.8z"></path> <linearGradient id="SVGID_00000136370410907330435910000013934014324515453595_" gradientUnits="userSpaceOnUse" x1="-438.5225" y1="-97.665" x2="634.7434" y2="607.075" gradientTransform="matrix(1 0 0 -1 0 637.8898)"> <stop offset="0.2826" style="stop-color:#FFFFFF"></stop> <stop offset="1" style="stop-color:#6600E6"></stop> </linearGradient> <path style="fill:none;stroke:url(#SVGID_00000136370410907330435910000013934014324515453595_);stroke-width:0.5669;" d=" M214.5,463.7c60.5-39.8,77.4-121.1,37.6-181.7c-39.8-60.6-121.1-77.4-181.6-37.6C9.9,284.2-6.9,365.5,32.9,426.1 C72.6,486.6,154,503.5,214.5,463.7z"></path> <linearGradient id="SVGID_00000160908999424602257860000012996971167736039833_" gradientUnits="userSpaceOnUse" x1="-448.2023" y1="-124.1388" x2="893.3438" y2="756.7812" gradientTransform="matrix(1 0 0 -1 0 637.8898)"> <stop offset="0.2826" style="stop-color:#FFFFFF"></stop> <stop offset="1" style="stop-color:#6600E6"></stop> </linearGradient> <path style="fill:none;stroke:url(#SVGID_00000160908999424602257860000012996971167736039833_);stroke-width:0.5669;" d=" M265.4,489.7c75.7-49.8,96.8-151.5,47.1-227.2s-151.4-96.8-227.1-47C9.6,265.2-11.5,366.9,38.3,442.7 C88,518.4,189.7,539.5,265.4,489.7z"></path> <linearGradient id="SVGID_00000011751675012219152830000006442610538115705250_" gradientUnits="userSpaceOnUse" x1="763.2755" y1="171.8644" x2="2648.8223" y2="-218.5957" gradientTransform="matrix(1 0 0 -1 0 637.8898)"> <stop offset="0.2826" style="stop-color:#FFFFFF"></stop> <stop offset="1" style="stop-color:#6600E6"></stop> </linearGradient> <path style="fill:none;stroke:url(#SVGID_00000011751675012219152830000006442610538115705250_);stroke-width:0.5669;" d=" M168.3,544.1c106.5,22.1,210.8-46.4,232.9-153c22.1-106.6-46.4-210.9-152.9-232.9c-106.5-22.1-210.8,46.4-232.9,153 S61.7,522,168.3,544.1z"></path> <linearGradient id="SVGID_00000170263584448046590980000013568370796514663592_" gradientUnits="userSpaceOnUse" x1="760.052" y1="180.7963" x2="2959.825" y2="-274.7337" gradientTransform="matrix(1 0 0 -1 0 637.8898)"> <stop offset="0.2826" style="stop-color:#FFFFFF"></stop> <stop offset="1" style="stop-color:#6600E6"></stop> </linearGradient> <path style="fill:none;stroke:url(#SVGID_00000170263584448046590980000013568370796514663592_);stroke-width:0.5669;" d=" M194.4,574.8c124.3,25.7,245.9-54.2,271.7-178.5c25.8-124.3-54.1-246-178.4-271.8C163.4,98.7,41.7,178.7,16,303 C-9.8,427.4,70.1,549,194.4,574.8z"></path> <linearGradient id="SVGID_00000097459250072615409770000008056125534027125659_" gradientUnits="userSpaceOnUse" x1="756.8474" y1="189.8676" x2="3270.8506" y2="-330.7325" gradientTransform="matrix(1 0 0 -1 0 637.8898)"> <stop offset="0.2826" style="stop-color:#FFFFFF"></stop> <stop offset="1" style="stop-color:#6600E6"></stop> </linearGradient> <path style="fill:none;stroke:url(#SVGID_00000097459250072615409770000008056125534027125659_);stroke-width:0.5669;" d=" M220.7,605.5c142.1,29.4,281.1-61.9,310.5-204.1c29.4-142.1-61.9-281.2-204-310.6S46.2,152.8,16.8,294.9 C-12.7,437,78.6,576.1,220.7,605.5z"></path> <linearGradient id="SVGID_00000031906844198251897550000017599898164136275643_" gradientUnits="userSpaceOnUse" x1="753.6005" y1="198.6582" x2="3581.8333" y2="-387.0118" gradientTransform="matrix(1 0 0 -1 0 637.8898)"> <stop offset="0.2826" style="stop-color:#FFFFFF"></stop> <stop offset="1" style="stop-color:#6600E6"></stop> </linearGradient> <path style="fill:none;stroke:url(#SVGID_00000031906844198251897550000017599898164136275643_);stroke-width:0.5669;" d=" M246.9,636.2c159.8,33.1,316.3-69.7,349.4-229.6c33.1-159.9-69.6-316.3-229.5-349.4S50.5,126.9,17.4,286.8 C-15.7,446.7,87.1,603.1,246.9,636.2z"></path> <linearGradient id="SVGID_00000034777617882718630380000006710858663295306417_" gradientUnits="userSpaceOnUse" x1="750.3773" y1="207.59" x2="3892.8474" y2="-443.1499" gradientTransform="matrix(1 0 0 -1 0 637.8898)"> <stop offset="0.2826" style="stop-color:#FFFFFF"></stop> <stop offset="1" style="stop-color:#6600E6"></stop> </linearGradient> <path style="fill:none;stroke:url(#SVGID_00000034777617882718630380000006710858663295306417_);stroke-width:0.5669;" d=" M273.1,666.9c177.6,36.8,351.4-77.4,388.2-255.1c36.8-177.7-77.4-351.5-255-388.3C228.7-13.2,54.9,101,18.1,278.7 C-18.7,456.3,95.5,630.2,273.1,666.9z"></path> <linearGradient id="SVGID_00000119805316326152554060000009792272407250734721_" gradientUnits="userSpaceOnUse" x1="806.648" y1="292.3586" x2="1122.2091" y2="233.2486" gradientTransform="matrix(1 0 0 -1 0 637.8898)"> <stop offset="0.2826" style="stop-color:#FFFFFF"></stop> <stop offset="1" style="stop-color:#6600E6"></stop> </linearGradient> <path style="fill:none;stroke:url(#SVGID_00000119805316326152554060000009792272407250734721_);stroke-width:0.5669;" d=" M71,240.9c17.7,3.3,34.7-8.3,38.1-26.1s-8.3-34.7-26-38.1c-17.7-3.3-34.7,8.3-38.1,26.1C41.7,220.6,53.3,237.6,71,240.9z"></path> <linearGradient id="SVGID_00000183239593625910046970000003734158660857426092_" gradientUnits="userSpaceOnUse" x1="812.4083" y1="267.7112" x2="1441.0363" y2="137.5312" gradientTransform="matrix(1 0 0 -1 0 637.8898)"> <stop offset="0.2826" style="stop-color:#FFFFFF"></stop> <stop offset="1" style="stop-color:#6600E6"></stop> </linearGradient> <path style="fill:none;stroke:url(#SVGID_00000183239593625910046970000003734158660857426092_);stroke-width:0.5669;" d=" M93,288.1c35.4,7.3,70-15.4,77.4-50.8c7.3-35.4-15.4-70.1-50.8-77.4c-35.4-7.3-70,15.4-77.4,50.8C34.9,246.1,57.6,280.7,93,288.1z"></path> <linearGradient id="SVGID_00000110451083698968445280000005409195824522343306_" gradientUnits="userSpaceOnUse" x1="804.6161" y1="260.1738" x2="1747.4812" y2="64.9238" gradientTransform="matrix(1 0 0 -1 0 637.8898)"> <stop offset="0.2826" style="stop-color:#FFFFFF"></stop> <stop offset="1" style="stop-color:#6600E6"></stop> </linearGradient> <path style="fill:none;stroke:url(#SVGID_00000110451083698968445280000005409195824522343306_);stroke-width:0.5669;" d=" M115.5,335.4c53.2,11,105.2-23.2,116.2-76.4c11-53.2-23.2-105.2-76.3-116.2c-53.2-11-105.2,23.2-116.2,76.4 C28.2,272.4,62.3,324.4,115.5,335.4z"></path> <linearGradient id="SVGID_00000165931408810816695600000018384692829719056781_" gradientUnits="userSpaceOnUse" x1="796.8926" y1="252.766" x2="2053.9875" y2="-7.5539" gradientTransform="matrix(1 0 0 -1 0 637.8898)"> <stop offset="0.2826" style="stop-color:#FFFFFF"></stop> <stop offset="1" style="stop-color:#6600E6"></stop> </linearGradient> <path style="fill:none;stroke:url(#SVGID_00000165931408810816695600000018384692829719056781_);stroke-width:0.5669;" d=" M138,382.8c70.9,14.7,140.4-30.9,155-101.9c14.7-71-30.9-140.4-101.8-155.1c-70.9-14.7-140.3,30.9-155,101.9 C21.4,298.7,67,368.1,138,382.8z"></path> <linearGradient id="SVGID_00000127745095095062583500000007968541759840526746_" gradientUnits="userSpaceOnUse" x1="789.1181" y1="245.0788" x2="2360.4553" y2="-80.3112" gradientTransform="matrix(1 0 0 -1 0 637.8898)"> <stop offset="0.2826" style="stop-color:#FFFFFF"></stop> <stop offset="1" style="stop-color:#6600E6"></stop> </linearGradient> <path style="fill:none;stroke:url(#SVGID_00000127745095095062583500000007968541759840526746_);stroke-width:0.5669;" d=" M160.4,430.2c88.7,18.4,175.5-38.7,193.9-127.4C372.7,214,315.7,127.2,227,108.9C138.3,90.5,51.5,147.5,33.1,236.3 S71.7,411.8,160.4,430.2z"></path> <linearGradient id="SVGID_00000029765614109027697350000000794983047414873245_" gradientUnits="userSpaceOnUse" x1="781.3906" y1="237.6538" x2="2666.9678" y2="-152.8062" gradientTransform="matrix(1 0 0 -1 0 637.8898)"> <stop offset="0.2826" style="stop-color:#FFFFFF"></stop> <stop offset="1" style="stop-color:#6600E6"></stop> </linearGradient> <path style="fill:none;stroke:url(#SVGID_00000029765614109027697350000000794983047414873245_);stroke-width:0.5669;" d=" M183,477.6c106.5,22.1,210.8-46.5,232.9-153C438,218,369.5,113.7,263,91.6c-106.5-22.1-210.8,46.4-232.9,153 C8,351.2,76.5,455.5,183,477.6z"></path> <linearGradient id="SVGID_00000062184228226847657350000005365562644517149613_" gradientUnits="userSpaceOnUse" x1="773.6229" y1="230.1068" x2="2973.429" y2="-225.4332" gradientTransform="matrix(1 0 0 -1 0 637.8898)"> <stop offset="0.2826" style="stop-color:#FFFFFF"></stop> <stop offset="1" style="stop-color:#6600E6"></stop> </linearGradient> <path style="fill:none;stroke:url(#SVGID_00000062184228226847657350000005365562644517149613_);stroke-width:0.5669;" d=" M205.5,524.9c124.3,25.7,245.9-54.2,271.7-178.5c25.8-124.3-54.1-246-178.4-271.8S52.8,128.8,27.1,253.2 C1.3,377.5,81.2,499.2,205.5,524.9z"></path> <linearGradient id="SVGID_00000183965852544535743810000008750588514940069282_" gradientUnits="userSpaceOnUse" x1="765.861" y1="222.5633" x2="3279.9141" y2="-298.0366" gradientTransform="matrix(1 0 0 -1 0 637.8898)"> <stop offset="0.2826" style="stop-color:#FFFFFF"></stop> <stop offset="1" style="stop-color:#6600E6"></stop> </linearGradient> <path style="fill:none;stroke:url(#SVGID_00000183965852544535743810000008750588514940069282_);stroke-width:0.5669;" d=" M228,572.3c142.1,29.4,281.1-61.9,310.5-204.1c29.4-142.1-61.9-281.2-204-310.6C192.5,28.2,53.5,119.6,24,261.7 C-5.4,403.8,85.9,542.9,228,572.3z"></path> <linearGradient id="SVGID_00000090257477112030931840000000114308183946631318_" gradientUnits="userSpaceOnUse" x1="758.0751" y1="215.0213" x2="3586.3611" y2="-370.6587" gradientTransform="matrix(1 0 0 -1 0 637.8898)"> <stop offset="0.2826" style="stop-color:#FFFFFF"></stop> <stop offset="1" style="stop-color:#6600E6"></stop> </linearGradient> <path style="fill:none;stroke:url(#SVGID_00000090257477112030931840000000114308183946631318_);stroke-width:0.5669;" d=" M250.4,619.7c159.8,33.1,316.3-69.7,349.4-229.6c33.1-159.9-69.6-316.3-229.5-349.4C210.5,7.6,54.1,110.3,21,270.2 C-12.1,430.1,90.6,586.6,250.4,619.7z"></path> <linearGradient id="SVGID_00000148627154600648286000000015160150679509375104_" gradientUnits="userSpaceOnUse" x1="750.3635" y1="207.593" x2="3892.8875" y2="-443.1569" gradientTransform="matrix(1 0 0 -1 0 637.8898)"> <stop offset="0.2826" style="stop-color:#FFFFFF"></stop> <stop offset="1" style="stop-color:#6600E6"></stop> </linearGradient> <path style="fill:none;stroke:url(#SVGID_00000148627154600648286000000015160150679509375104_);stroke-width:0.5669;" d=" M273.1,666.9c177.6,36.8,351.4-77.4,388.2-255.1c36.8-177.7-77.4-351.5-255-388.3C228.7-13.2,54.9,101,18.1,278.7 C-18.7,456.3,95.5,630.2,273.1,666.9z"></path> </g> </svg> 