<?xml version="1.0" encoding="UTF-8"?> <!-- Generator: Adobe Illustrator 28.2.0, SVG Export Plug-In . SVG Version: 6.00 Build 0) --> <svg xmlns="http://www.w3.org/2000/svg" xmlns:xlink="http://www.w3.org/1999/xlink" id="Layer_1" x="0px" y="0px" viewBox="0 0 80 80" style="enable-background:new 0 0 80 80;" xml:space="preserve"> <style type="text/css"> .st0{fill:none;stroke:#FFFFFF;stroke-width:0.5;stroke-miterlimit:10;} .st1{fill:#2555FF;} .st2{fill:#D66A24;} .st3{fill:#D66A24;stroke:#D66A24;stroke-width:0.5;stroke-miterlimit:10;} .st4{fill:none;stroke:#FFFFFF;stroke-width:0.25;stroke-miterlimit:10;} .st5{fill:#F2F5FF;} .st6{fill:#FFFFFF;} </style> <path class="st0" d="M65.4,76.3L65.3,76l2.2-1.3V21.3l-9.8-5.6l0.2-0.3l9.9,5.7c0.1,0,0.1,0.1,0.1,0.1v53.6c0,0.1,0,0.1-0.1,0.1 L65.4,76.3z"></path> <path class="st0" d="M40.6,5.9l-3.2-1.8l-2.2,1.3L35,5.1l2.3-1.3c0.1,0,0.1,0,0.2,0l3.3,1.9L40.6,5.9z"></path> <path class="st0" d="M35.1,11.2h-0.3V5.2c0-0.1,0-0.1,0.1-0.1c0.1,0,0.1,0,0.2,0l3.6,2.1l-0.2,0.3l-3.3-1.9V11.2z"></path> <path class="st0" d="M65.1,76.2C65.1,76.2,65.1,76.2,65.1,76.2L34.9,59c-0.1,0-0.1-0.1-0.1-0.1V46.3h0.3v12.4L65,75.8V22.6l-7.1-4.1 l0.2-0.3l7.2,4.1c0.1,0,0.1,0.1,0.1,0.1v53.5C65.3,76.1,65.2,76.2,65.1,76.2C65.2,76.2,65.1,76.2,65.1,76.2z"></path> <path class="st0" d="M65.3,22.6l-0.2-0.3l2.3-1.3l0.2,0.3L65.3,22.6z"></path> <path class="st0" d="M60.8,31.5l-3.2-1.8l0.2-0.3l3.2,1.8L60.8,31.5z"></path> <path class="st1" d="M49.2,25l-11-6.3l0.5-0.8l11,6.3L49.2,25z"></path> <path class="st0" d="M60.8,38.4l-5-2.8l0.2-0.3l5,2.8L60.8,38.4z"></path> <path class="st1" d="M47.6,31l-9.4-5.3l0.5-0.8l9.4,5.3L47.6,31z"></path> <path class="st0" d="M60.6,45.6l-7.7-4.5l0.2-0.3l7.7,4.5L60.6,45.6z"></path> <path class="st1" d="M44.7,36.4l-6.5-3.8l0.5-0.8l6.5,3.8L44.7,36.4z"></path> <path class="st0" d="M60.8,61.2l-17.3-10l0.2-0.3l17.3,10L60.8,61.2z"></path> <path class="st0" d="M60.8,65.3L39.1,53l0.2-0.3L60.9,65L60.8,65.3z"></path> <path class="st0" d="M15.8,62.5c-0.2,0-0.4,0-0.6-0.1c-1.3-0.3-2.8-1.6-3.2-3c-0.3-0.8-0.1-1.5,0.5-1.9l0.1,0.3 c-0.4,0.2-0.6,0.8-0.4,1.5c0.4,1.2,1.7,2.5,2.9,2.8c0.7,0.2,1.3,0,1.5-0.5l0.3,0.1C17,62.2,16.5,62.5,15.8,62.5z"></path> <path class="st1" d="M17.4,61.9c-0.2,0-0.5,0-0.7-0.1c-1.7-0.4-3.6-2.1-4.1-3.8c-0.2-0.8-0.2-1.4,0.2-1.9l12.6-13.5l0.2,0.2L13,56.2 c-0.3,0.4-0.3,1-0.1,1.6c0.5,1.6,2.2,3.2,3.8,3.6c0.7,0.2,1.3,0.1,1.6-0.2c0.1-0.1,0.1-0.1,0.2-0.2L31,47.8l0.2,0.2L18.9,61.2 c-0.1,0.1-0.1,0.2-0.2,0.2c0,0,0,0,0,0C18.3,61.7,17.9,61.9,17.4,61.9z"></path> <path class="st1" d="M29.9,48.6c-0.2,0-0.5,0-0.7-0.1c-1.7-0.4-3.6-2.1-4.1-3.8c-0.3-0.9-0.2-1.6,0.3-2.1c0.4-0.5,1.2-0.6,2-0.4 c0.4,0.1,0.7,0.2,1.1,0.4l-0.1,0.3c-0.4-0.2-0.7-0.3-1-0.4c-0.8-0.2-1.4-0.1-1.7,0.3c-0.4,0.4-0.4,1-0.2,1.8 c0.5,1.6,2.2,3.2,3.8,3.6c0.8,0.2,1.4,0.1,1.7-0.3c0.4-0.4,0.4-1,0.2-1.8c-0.1-0.3-0.3-0.7-0.5-1l0.3-0.2c0.2,0.4,0.4,0.7,0.5,1.1 c0.3,0.9,0.2,1.6-0.3,2.1C30.9,48.4,30.4,48.6,29.9,48.6z"></path> <g> <path class="st2" d="M49.2,25l-11-6.3l0.5-0.8l11,6.3L49.2,25z"></path> </g> <g> <path class="st2" d="M47.6,31l-9.4-5.3l0.5-0.8l9.4,5.3L47.6,31z"></path> </g> <g> <path class="st2" d="M44.7,36.4l-6.5-3.8l0.5-0.8l6.5,3.8L44.7,36.4z"></path> </g> <g> <path class="st3" d="M17.4,61.9c-0.2,0-0.5,0-0.7-0.1c-1.7-0.4-3.6-2.1-4.1-3.8c-0.2-0.8-0.2-1.4,0.2-1.9l12.6-13.5l0.2,0.2 L13,56.2c-0.3,0.4-0.3,1-0.1,1.6c0.5,1.6,2.2,3.2,3.8,3.6c0.7,0.2,1.3,0.1,1.6-0.2c0.1-0.1,0.1-0.1,0.2-0.2L31,47.8l0.2,0.2 L18.9,61.2c-0.1,0.1-0.1,0.2-0.2,0.2c0,0,0,0,0,0C18.3,61.7,17.9,61.9,17.4,61.9z"></path> </g> <g> <path class="st3" d="M29.9,48.6c-0.2,0-0.5,0-0.7-0.1c-1.7-0.4-3.6-2.1-4.1-3.8c-0.3-0.9-0.2-1.6,0.3-2.1c0.4-0.5,1.2-0.6,2-0.4 c0.4,0.1,0.7,0.2,1.1,0.4l-0.1,0.3c-0.4-0.2-0.7-0.3-1-0.4c-0.8-0.2-1.4-0.1-1.7,0.3c-0.4,0.4-0.4,1-0.2,1.8 c0.5,1.6,2.2,3.2,3.8,3.6c0.8,0.2,1.4,0.1,1.7-0.3c0.4-0.4,0.4-1,0.2-1.8c-0.1-0.3-0.3-0.7-0.5-1l0.3-0.2c0.2,0.4,0.4,0.7,0.5,1.1 c0.3,0.9,0.2,1.6-0.3,2.1C30.9,48.4,30.4,48.6,29.9,48.6z"></path> </g> <path class="st4" d="M29,46.9c-0.1,0-0.2,0-0.3,0c-0.8-0.2-1.6-1-1.9-1.7c-0.1-0.4-0.1-0.8,0.1-1l3.9-4.2l0.2,0.2l-3.9,4.1 C27,44.4,27,44.7,27.1,45c0.2,0.7,0.9,1.4,1.6,1.5c0.3,0.1,0.6,0,0.7-0.1l3-3.2l0.2,0.2l-3,3.2C29.5,46.8,29.3,46.9,29,46.9z"></path> <path class="st5" d="M41.8,47.7c-0.7,0-1.5-0.1-2.2-0.3L37,46.7l0.1-0.6l2.6,0.6c5.7,1.7,12.6-4.3,16-14c3.8-10.9,2.1-22.8-3.9-26.3 c-0.5-0.3-1.1-0.6-1.8-0.7c0,0,0,0,0,0c-0.2-0.1-1.8-0.5-2.9-0.7l0.2-0.6c0,0,0.7,0.2,1.5,0.4C49.6,4.9,50,5,50.3,5.1l0,0 c0.7,0.2,1.3,0.5,1.9,0.8c6.2,3.7,8,15.9,4.1,27.1C53.2,41.8,47.3,47.7,41.8,47.7z"></path> <path class="st5" d="M45.5,4.7c-0.9,0-1.8,0.2-2.8,0.5c-4.5,1.6-8.7,6.9-11.2,13.8c-3.8,10.9-2.1,22.8,3.9,26.3 c1.9,1.1,4.1,1.3,6.4,0.5c4.5-1.6,8.7-6.9,11.2-13.8C56.8,21.1,55,9.3,49.1,5.7C48,5.1,46.8,4.7,45.5,4.7z M39,47 c-1.4,0-2.7-0.4-3.9-1.1c-6.2-3.7-8-15.9-4.1-27.1c2.5-7.2,6.8-12.5,11.5-14.2c2.5-0.9,4.9-0.7,6.9,0.6c6.2,3.7,8,15.8,4.1,27.1 C51,39.5,46.7,44.8,42,46.5C41,46.8,40,47,39,47z"></path> <path class="st5" d="M44.7,9.9c-0.7,0-1.4,0.1-2.1,0.4c-3.4,1.2-6.6,5.2-8.4,10.4c-2.8,8.1-1.5,17.2,2.9,19.9c1.4,0.8,3,1,4.7,0.4 c3.4-1.2,6.6-5.2,8.4-10.5c2.9-8.2,1.6-17.1-2.9-19.8C46.5,10.2,45.6,9.9,44.7,9.9z M39.8,41.9c-1,0-2-0.3-3-0.8 c-4.7-2.8-6.2-12.1-3.2-20.6c1.9-5.4,5.2-9.5,8.7-10.8c1.9-0.7,3.7-0.5,5.3,0.4c4.7,2.8,6.1,12,3.1,20.5c-1.9,5.4-5.3,9.6-8.8,10.9 C41.3,41.8,40.5,41.9,39.8,41.9z"></path> <g> <path class="st6" d="M41.8,47.7c-0.7,0-1.5-0.1-2.2-0.3L37,46.7l0.1-0.6l2.6,0.6c5.7,1.7,12.6-4.3,16-14 c3.8-10.9,2.1-22.8-3.9-26.3c-0.5-0.3-1.1-0.6-1.8-0.7c0,0,0,0,0,0c-0.2-0.1-1.8-0.5-2.9-0.7l0.2-0.6c0,0,0.7,0.2,1.5,0.4 C49.6,4.9,50,5,50.3,5.1l0,0c0.7,0.2,1.3,0.5,1.9,0.8c6.2,3.7,8,15.9,4.1,27.1C53.2,41.8,47.3,47.7,41.8,47.7z"></path> </g> <g> <path class="st6" d="M45.5,4.7c-0.9,0-1.8,0.2-2.8,0.5c-4.5,1.6-8.7,6.9-11.2,13.8c-3.8,10.9-2.1,22.8,3.9,26.3 c1.9,1.1,4.1,1.3,6.4,0.5c4.5-1.6,8.7-6.9,11.2-13.8C56.8,21.1,55,9.3,49.1,5.7C48,5.1,46.8,4.7,45.5,4.7z M39,47 c-1.4,0-2.7-0.4-3.9-1.1c-6.2-3.7-8-15.9-4.1-27.1c2.5-7.2,6.8-12.5,11.5-14.2c2.5-0.9,4.9-0.7,6.9,0.6c6.2,3.7,8,15.8,4.1,27.1 C51,39.5,46.7,44.8,42,46.5C41,46.8,40,47,39,47z"></path> </g> <g> <path class="st6" d="M44.7,9.9c-0.7,0-1.4,0.1-2.1,0.4c-3.4,1.2-6.6,5.2-8.4,10.4c-2.8,8.1-1.5,17.2,2.9,19.9c1.4,0.8,3,1,4.7,0.4 c3.4-1.2,6.6-5.2,8.4-10.5c2.9-8.2,1.6-17.1-2.9-19.8C46.5,10.2,45.6,9.9,44.7,9.9z M39.8,41.9c-1,0-2-0.3-3-0.8 c-4.7-2.8-6.2-12.1-3.2-20.6c1.9-5.4,5.2-9.5,8.7-10.8c1.9-0.7,3.7-0.5,5.3,0.4c4.7,2.8,6.1,12,3.1,20.5c-1.9,5.4-5.3,9.6-8.8,10.9 C41.3,41.8,40.5,41.9,39.8,41.9z"></path> </g> </svg> 