<?xml version="1.0" encoding="UTF-8"?> <!-- Generator: Adobe Illustrator 28.2.0, SVG Export Plug-In . SVG Version: 6.00 Build 0) --> <svg xmlns="http://www.w3.org/2000/svg" xmlns:xlink="http://www.w3.org/1999/xlink" id="Layer_1" x="0px" y="0px" viewBox="0 0 674 666" style="enable-background:new 0 0 674 666;" xml:space="preserve"> <style type="text/css"> .st0{fill:url(#SVGID_1_);filter:url(#Adobe_OpacityMaskFilter);} .st1{mask:url(#mask0_970_1744_00000050665410187806339590000009149263173297833632_);} .st2{opacity:0.15;enable-background:new ;} .st3{opacity:0.5;enable-background:new ;} </style> <defs> <filter id="Adobe_OpacityMaskFilter" filterUnits="userSpaceOnUse" x="0" y="0" width="674" height="666"> <feColorMatrix type="matrix" values="1 0 0 0 0 0 1 0 0 0 0 0 1 0 0 0 0 0 1 0"></feColorMatrix> </filter> </defs> <mask maskUnits="userSpaceOnUse" x="0" y="0" width="674" height="666" id="mask0_970_1744_00000050665410187806339590000009149263173297833632_"> <radialGradient id="SVGID_1_" cx="-83.1182" cy="630.5527" r="1" gradientTransform="matrix(1.812477e-14 296 299.556 -1.834252e-14 -188548.8281 24936)" gradientUnits="userSpaceOnUse"> <stop offset="0" style="stop-color:#D9D9D9"></stop> <stop offset="0.6644" style="stop-color:#D9D9D9;stop-opacity:0.4"></stop> <stop offset="1" style="stop-color:#D9D9D9;stop-opacity:0"></stop> </radialGradient> <rect y="0" class="st0" width="674" height="666"></rect> </mask> <g class="st1"> <rect y="0" class="st2" width="674" height="666"></rect> <rect x="656.1" y="180.9" class="st3" width="1" height="296"></rect> <rect x="336.1" y="0.9" width="1" height="296"></rect> <rect x="504.1" y="197.9" transform="matrix(0.4894 -0.8721 0.8721 0.4894 -83.2462 639.5997)" width="1" height="386"></rect> <rect x="284.1" y="30.9" class="st3" width="1" height="296"></rect> <rect x="452.1" y="227.9" transform="matrix(0.4894 -0.8721 0.8721 0.4894 -135.9604 609.5707)" class="st3" width="1" height="386"></rect> <rect x="231.1" y="60.9" class="st3" width="1" height="296"></rect> <rect x="399.1" y="257.9" transform="matrix(0.4894 -0.8721 0.8721 0.4894 -189.1852 578.6696)" class="st3" width="1" height="386"></rect> <rect x="179.1" y="89.9" class="st3" width="1" height="296"></rect> <rect x="347.1" y="286.9" transform="matrix(0.4894 -0.8721 0.8721 0.4894 -241.0273 548.1298)" class="st3" width="1" height="386"></rect> <rect x="127.1" y="119.9" class="st3" width="1" height="296"></rect> <rect x="295.1" y="316.9" transform="matrix(0.4894 -0.8721 0.8721 0.4894 -293.7415 518.1008)" class="st3" width="1" height="386"></rect> <rect x="74.1" y="148.9" class="st3" width="1" height="296"></rect> <rect x="242.1" y="345.9" transform="matrix(0.4894 -0.8721 0.8721 0.4894 -346.0942 486.689)" class="st3" width="1" height="386"></rect> <rect x="22.1" y="178.9" class="st3" width="1" height="296"></rect> <rect x="190.1" y="375.9" transform="matrix(0.4894 -0.8721 0.8721 0.4894 -398.8084 456.6599)" class="st3" width="1" height="386"></rect> <rect x="-24.4" y="390.4" transform="matrix(0.8721 -0.4894 0.4894 0.8721 -169.7298 132.4937)" width="386" height="1"></rect> <rect x="390.1" y="31.9" class="st3" width="1" height="296"></rect> <rect x="29.6" y="421.4" transform="matrix(0.8721 -0.4894 0.4894 0.8721 -177.9924 162.8862)" class="st3" width="386" height="1"></rect> <rect x="444.1" y="60.9" class="st3" width="1" height="296"></rect> <rect x="83.6" y="450.4" transform="matrix(0.8721 -0.4894 0.4894 0.8721 -185.2762 193.0228)" class="st3" width="386" height="1"></rect> <rect x="497.1" y="90.9" class="st3" width="1" height="296"></rect> <rect x="136.6" y="480.4" transform="matrix(0.8721 -0.4894 0.4894 0.8721 -193.1774 222.798)" class="st3" width="386" height="1"></rect> <rect x="551.1" y="120.9" class="st3" width="1" height="296"></rect> <rect x="190.6" y="510.4" transform="matrix(0.8721 -0.4894 0.4894 0.8721 -200.9506 253.0625)" class="st3" width="386" height="1"></rect> <rect x="603.1" y="151.9" class="st3" width="1" height="296"></rect> <rect x="242.6" y="541.4" transform="matrix(0.8721 -0.4894 0.4894 0.8721 -209.469 282.4763)" class="st3" width="386" height="1"></rect> <rect x="295.6" y="570.4" transform="matrix(0.8721 -0.4894 0.4894 0.8721 -216.8808 312.1235)" class="st3" width="386" height="1"></rect> <rect x="504.1" y="138.9" transform="matrix(0.4894 -0.8721 0.8721 0.4894 -31.7941 609.4733)" class="st3" width="1" height="386"></rect> <rect x="-24.4" y="331.4" transform="matrix(0.8721 -0.4894 0.4894 0.8721 -140.8562 124.9458)" class="st3" width="386" height="1"></rect> <rect x="504.1" y="79.9" transform="matrix(0.4894 -0.8721 0.8721 0.4894 19.658 579.3469)" class="st3" width="1" height="386"></rect> <rect x="-24.4" y="272.4" transform="matrix(0.8721 -0.4894 0.4894 0.8721 -111.9827 117.3979)" class="st3" width="386" height="1"></rect> <rect x="504.1" y="20.9" transform="matrix(0.4894 -0.8721 0.8721 0.4894 71.1101 549.2205)" class="st3" width="1" height="386"></rect> <rect x="-24.4" y="212.4" transform="matrix(0.8721 -0.4894 0.4894 0.8721 -82.6198 109.7221)" class="st3" width="386" height="1"></rect> <rect x="504.1" y="-39.1" transform="matrix(0.4894 -0.8721 0.8721 0.4894 123.4342 518.5834)" class="st3" width="1" height="386"></rect> <rect x="-24.4" y="152.4" transform="matrix(0.8721 -0.4894 0.4894 0.8721 -53.2569 102.0462)" class="st3" width="386" height="1"></rect> <rect x="504.1" y="-97.1" transform="matrix(0.4894 -0.8721 0.8721 0.4894 174.0142 488.9676)" class="st3" width="1" height="386"></rect> <rect x="-24.4" y="94.4" transform="matrix(0.8721 -0.4894 0.4894 0.8721 -24.8727 94.6263)" class="st3" width="386" height="1"></rect> </g> </svg> 