<?xml version="1.0" encoding="UTF-8"?> <!-- Generator: Adobe Illustrator 28.2.0, SVG Export Plug-In . SVG Version: 6.00 Build 0) --> <svg xmlns="http://www.w3.org/2000/svg" xmlns:xlink="http://www.w3.org/1999/xlink" id="Layer_1" x="0px" y="0px" viewBox="0 0 317 296" style="enable-background:new 0 0 317 296;" xml:space="preserve"> <style type="text/css"> .st0{fill:#FF5B00;fill-opacity:0.8;} .st1{fill:#010A11;fill-opacity:0.15;} .st2{fill:#FF5B00;} .st3{fill:#FFFFFF;} .st4{fill-rule:evenodd;clip-rule:evenodd;fill:#2555FF;} .st5{fill-rule:evenodd;clip-rule:evenodd;fill:#FF5B00;} .st6{fill:#D66A24;} </style> <path class="st0" d="M73.5,203.5c0,0,2.5,12.5,15.5,25c13,12.5,25,14.5,25,14.5s-12,5-25,7.5c-13,2.5-25.3,1.9-25.3,1.9 s1.8-18.9,3.3-26.4S73.5,203.5,73.5,203.5z"></path> <g> <path class="st1" d="M69.5,147c-21,6.8-39.2,25-45,32.5l1,3.5L84,173l25.5-27c0.3-0.8,0.8-2.7,0-3.5 C108.5,141.5,92.8,139.5,69.5,147z"></path> </g> <g> <path class="st1" d="M168.9,246.3c-6.8,21-25,39.2-32.5,45l-3.5-1l10-58.5l27-25.5c0.8-0.3,2.7-0.8,3.5,0 C174.4,207.3,176.4,223.1,168.9,246.3z"></path> </g> <g> <path class="st1" d="M117,97.5c-10-0.4-25.2,14.5-31,22l21.5,13l21-28C128.8,102.3,127,97.9,117,97.5z"></path> </g> <g> <path class="st1" d="M218.8,199.3c0.4,10-14.5,25.2-22,31l-13-21.5l28-21C213.9,187.4,218.4,189.3,218.8,199.3z"></path> </g> <g> <path class="st1" d="M266.6,50.3c0,0,2.9,33.2-9.1,69.2c-12,36-35.7,58.7-35.7,58.7S154,237,135,241s-42-17.1-42-17.1 S74,207,74,186.5c0-20.5,64.7-93.4,64.7-93.4s21.8-22.6,61.8-36.1S266.6,50.3,266.6,50.3z"></path> </g> <path class="st2" d="M63.7,252.7c-0.1-0.1-0.2-0.2-0.2-0.4c-0.8-12.8,3.2-32.5,9.8-49.2l1.1,0.4c-6.5,16.3-10.4,35.5-9.8,48.1 c12,0.6,31.2-1.6,49.7-9.8l0.5,1.1c-16.1,7.1-35.1,10.8-50.7,9.9C63.9,252.8,63.8,252.8,63.7,252.7z"></path> <path class="st3" d="M87.8,228.3c-6.6-6.6-11.8-14.7-14-22.7c-1.9-7-1.6-11.9,0.8-15.7l1,0.6c-2.2,3.5-2.4,8.1-0.6,14.8 c4.2,15.6,20.3,31.7,35.8,35.8c6.3,1.7,11.1,1.5,14.7-0.6l0.6,1c-3.9,2.3-9,2.5-15.6,0.8C102.5,240.1,94.4,234.9,87.8,228.3z"></path> <path class="st3" d="M85.1,120.3c-0.1-0.1-0.2-0.2-0.2-0.3c0-0.2,0-0.4,0.2-0.5L98.7,106c10.3-10.3,21.8-12,30.1-4.4l-0.8,0.9 c-7.8-7.1-18.7-5.4-28.5,4.4l-13,13l21,11.9l-0.6,1l-21.7-12.3C85.2,120.4,85.2,120.4,85.1,120.3z"></path> <path class="st3" d="M195.7,231.1c0,0-0.1-0.1-0.1-0.1l-12.3-21.8l1-0.6l12,21.2l13-13c5.9-5.9,8.9-12.1,8.7-18 c-0.1-4.5-2.1-8.6-5.8-11.9l0.8-0.9c3.9,3.5,6.1,7.9,6.2,12.7c0.2,6.3-3,12.8-9.1,18.9l-13.5,13.5c-0.1,0.1-0.3,0.2-0.5,0.2 C195.9,231.3,195.8,231.2,195.7,231.1z"></path> <path class="st3" d="M175.8,215.6l-1.4-1.9c0.3-0.2,28.5-20.7,37.3-28.2c35.6-30.4,55.7-79.6,53.8-131.6c0-1.1-0.1-2.2-0.2-3.2 c-1.1-0.1-2.1-0.1-3.2-0.2c-52-1.9-101.2,18.2-131.6,53.8c-7.4,8.7-27.8,36.7-28,37l-1.9-1.4c0.2-0.3,20.6-28.4,28.1-37.1 c30.9-36.2,80.8-56.6,133.5-54.6c1.4,0.1,2.9,0.1,4.3,0.2c0.6,0,1.1,0.5,1.1,1.1c0.1,1.4,0.2,2.9,0.2,4.3 c1.9,52.7-18.5,102.6-54.6,133.5C204.4,194.9,176.1,215.4,175.8,215.6z"></path> <path class="st3" d="M92.2,223.9c-8.2-8.2-14.6-18.1-17.2-28c-2.3-8.7-1.4-16.4,2.6-21.6l1.2-1.7l1.9,1.3l-1.2,1.8 c-3.6,4.6-4.4,11.6-2.2,19.6c5.1,18.9,24.6,38.4,43.5,43.5c7.8,2.1,14.7,1.4,19.3-2c0,0,0,0,0,0c0.1-0.1,1.8-1.2,1.8-1.2l1.3,1.9 c-0.8,0.5-1.4,0.9-1.8,1.1c-5.1,3.8-12.7,4.6-21.2,2.3C110.3,238.4,100.4,232,92.2,223.9z"></path> <path class="st3" d="M132.8,291.6l0.2-1.1l3.6,0.7l13.4-13.4c15-15,28.6-49.6,23.3-70.4l-3.7-0.4l0.1-1.2l4.1,0.5 c0.2,0,0.4,0.2,0.5,0.4c5.7,21.1-8.2,56.6-23.5,71.9l-13.6,13.6c-0.1,0.1-0.3,0.2-0.5,0.2L132.8,291.6z"></path> <path class="st3" d="M143.8,233l-9.9,55.8l12.2-12.2c14.7-14.7,28.1-48.5,23.3-69.2L143.8,233z M132.5,291c-0.1-0.1-0.2-0.3-0.2-0.5 l10.3-57.8c0-0.1,0.1-0.2,0.2-0.3l26.4-26.4c0.1-0.1,0.4-0.2,0.6-0.2c0.2,0.1,0.4,0.2,0.4,0.4c5.6,21-8.2,56.1-23.3,71.3L133.4,291 c-0.2,0.2-0.5,0.2-0.7,0.1C132.6,291.1,132.6,291,132.5,291z"></path> <path class="st3" d="M24.6,183.3l-0.7-3.9c0-0.2,0-0.4,0.2-0.5l13.6-13.6c15.3-15.3,50.7-29.2,71.9-23.5c0.2,0.1,0.4,0.2,0.4,0.5 l0.7,3.9l-1.1,0.2l-0.7-3.5c-20.8-5.3-55.4,8.3-70.4,23.3l-13.4,13.4l0.7,3.5L24.6,183.3z"></path> <path class="st3" d="M108.7,146.8c-20.7-4.8-54.5,8.6-69.2,23.3l-12.2,12.2l55.8-9.9L108.7,146.8z M25.2,183.6c0,0-0.1-0.1-0.1-0.1 c-0.1-0.2-0.1-0.5,0.1-0.7l13.5-13.5c15.2-15.2,50.4-29,71.3-23.3c0.2,0.1,0.4,0.2,0.4,0.4c0.1,0.2,0,0.4-0.2,0.6l-26.4,26.4 c-0.1,0.1-0.2,0.1-0.3,0.2l-57.8,10.3C25.5,183.8,25.3,183.7,25.2,183.6z"></path> <path class="st2" d="M93.1,221.4l-0.8-0.8L234.1,78.8l0.8,0.8L93.1,221.4z"></path> <path class="st2" d="M97.2,225.5l-0.8-0.8L238.2,82.9l0.8,0.8L97.2,225.5z"></path> <path class="st3" d="M265.4,50.7c-1.1-0.1-2.1-0.1-3.2-0.2c-8.9-0.3-18,0.1-26.9,1.1c-0.5,0.1-0.9,0.1-1.4,0.2l-0.8,0.1 c-2.1,0.5-3.8,1.7-4.9,3.4c-1.4,2.4-1.7,5.7-0.6,9.5c2.7,10.2,13.3,20.7,23.5,23.5c3.9,1,7.2,0.8,9.6-0.6c1.7-1.1,2.9-2.8,3.4-5 l0.1-0.8c0.1-0.4,0.1-0.8,0.2-1.2c1.1-8.9,1.5-17.9,1.1-26.9C265.5,52.9,265.4,51.8,265.4,50.7z M235,81.1 c-4.5-4.5-8.1-10.1-9.6-15.6c-1.2-4.5-0.9-8.4,0.9-11.3c1.4-2.3,3.6-3.9,6.4-4.5l0.9-0.1c0.5-0.1,0.9-0.1,1.4-0.2 c9-1.1,18.2-1.5,27.2-1.2c1.4,0.1,2.9,0.1,4.3,0.2c0.6,0,1.1,0.5,1.1,1.1c0.1,1.4,0.2,2.9,0.2,4.3c0.3,9.1-0.1,18.2-1.2,27.2 c-0.1,0.4-0.1,0.8-0.2,1.3l-0.1,0.8c0,0,0,0.1,0,0.1c-0.6,2.9-2.2,5.1-4.5,6.5c-2.9,1.8-6.9,2.1-11.4,0.9 C245.1,89.2,239.5,85.7,235,81.1z"></path> <path class="st4" d="M172.7,143c-7.6-7.6-7.6-20,0-27.6s20-7.6,27.6,0c7.6,7.6,7.6,20,0,27.6C192.7,150.6,180.3,150.6,172.7,143z M206.1,109.6c-10.8-10.8-28.3-10.8-39.2,0c-10.8,10.8-10.8,28.3,0,39.2c10.8,10.8,28.3,10.8,39.2,0 C216.9,137.9,216.9,120.4,206.1,109.6z"></path> <g> <path class="st5" d="M172.7,143c-7.6-7.6-7.6-20,0-27.6s20-7.6,27.6,0c7.6,7.6,7.6,20,0,27.6C192.7,150.6,180.3,150.6,172.7,143z M206.1,109.6c-10.8-10.8-28.3-10.8-39.2,0c-10.8,10.8-10.8,28.3,0,39.2c10.8,10.8,28.3,10.8,39.2,0 C216.9,137.9,216.9,120.4,206.1,109.6z"></path> </g> <path class="st6" d="M199.9,115.7c-7.4-7.4-19.4-7.4-26.8,0c-7.4,7.4-7.4,19.4,0,26.8c7.4,7.4,19.4,7.4,26.8,0 C207.3,135.2,207.3,123.1,199.9,115.7z M172.3,143.4c-7.8-7.8-7.9-20.6,0-28.5c7.8-7.8,20.6-7.8,28.5,0c7.8,7.8,7.8,20.6,0,28.5 C192.9,151.2,180.1,151.2,172.3,143.4z M205.7,110c-10.6-10.6-27.8-10.6-38.3,0c-10.6,10.6-10.6,27.8,0,38.3s27.8,10.6,38.3,0 C216.2,137.7,216.2,120.5,205.7,110z M166.5,149.1c-11-11-11-29,0-40c11-11,29-11,40,0c11,11,11,29,0,40 C195.5,160.1,177.5,160.1,166.5,149.1z"></path> </svg> 