<?xml version="1.0" encoding="UTF-8"?> <!-- Generator: Adobe Illustrator 26.0.3, SVG Export Plug-In . SVG Version: 6.00 Build 0) --> <svg xmlns="http://www.w3.org/2000/svg" xmlns:xlink="http://www.w3.org/1999/xlink" id="Layer_1" x="0px" y="0px" viewBox="0 0 23 20" style="enable-background:new 0 0 23 20;" xml:space="preserve"> <style type="text/css"> .st0{clip-path:url(#SVGID_00000147214982171382822940000000723998892360179107_);} .st1{fill:#FFFFFF;} </style> <g> <defs> <rect id="SVGID_1_" y="0" width="23" height="20"></rect> </defs> <clipPath id="SVGID_00000030475543804723863360000014013020334116202141_"> <use xlink:href="#SVGID_1_" style="overflow:visible;"></use> </clipPath> <g style="clip-path:url(#SVGID_00000030475543804723863360000014013020334116202141_);"> <path class="st1" d="M4,20c1.2,0,4.2-1.3,6-2.4c0.2-0.1,0.3-0.2,0.5-0.2c0.1,0,0.3,0,0.4,0c7.3,0,12.2-3.9,12.2-8.7 C23,3.9,17.9,0,11.5,0C5.1,0,0,3.9,0,8.7c0,3.1,2,5.8,5.3,7.4c0.2,0.1,0.2,0.2,0.1,0.4c-0.6,0.9-1.6,1.9-2,2.4C3,19.4,3.2,20,4,20 z"></path> </g> </g> </svg> 