<?xml version="1.0" encoding="UTF-8"?> <!-- Generator: Adobe Illustrator 26.0.3, SVG Export Plug-In . SVG Version: 6.00 Build 0) --> <svg xmlns="http://www.w3.org/2000/svg" xmlns:xlink="http://www.w3.org/1999/xlink" id="_x32_" x="0px" y="0px" viewBox="0 0 283.5 283.5" style="enable-background:new 0 0 283.5 283.5;" xml:space="preserve"> <style type="text/css"> .st0{fill:#FFFFFF;} </style> <g id="SVGRepo_bgCarrier"> </g> <g id="SVGRepo_tracerCarrier"> </g> <g id="SVGRepo_iconCarrier"> <g> <path class="st0" d="M141.7,0C63.5,0,0,63.5,0,141.7s63.5,141.7,141.7,141.7S283.5,220,283.5,141.7S220,0,141.7,0z M144.5,120.4 c0,0,0.1,0,0.1,0c-0.5-2.1-0.7-4.2-0.7-6.5c0-15.7,12.7-28.4,28.4-28.4c8.2,0,15.5,3.4,20.7,9c5.3-1,10.3-2.9,15-5.3 c1-0.5,2-1,2.9-1.5c-1.7,5.2-4.8,9.6-8.9,13c-1.1,0.9-2.2,1.7-3.5,2.4c0.1,0,0.2,0,0.3,0c-0.1,0.1-0.2,0.1-0.2,0.2 c4.7-0.6,9.1-1.7,13.3-3.3c0.9-0.3,1.9-0.7,2.8-1c-3.8,5.6-8.6,10.6-14,14.5c0.1,1.2,0.1,2.4,0.1,3.7c0,37.5-28.5,80.7-80.7,80.7 c-16,0-30.9-4.7-43.5-12.7c2.2,0.3,4.5,0.4,6.8,0.4c10.6,0,20.5-2.9,29-7.9c2.1-1.2,4.2-2.6,6.2-4.1c-0.1,0-0.1,0-0.2,0 c0.1,0,0.1-0.1,0.2-0.1c-10.8-0.2-20-6.4-24.7-15.4c-0.7-1.4-1.3-2.8-1.8-4.3c1.7,0.3,3.5,0.5,5.3,0.5c1.9,0,3.7-0.2,5.5-0.6 c0.7-0.1,1.3-0.2,2-0.3c-0.1,0-0.2-0.1-0.2-0.1c0.1,0,0.2,0,0.3-0.1c-13-2.6-22.8-14.1-22.8-27.8c0-0.1,0-0.2,0-0.3l0,0 c3.1,1.7,6.5,2.8,10.1,3.3c0.9,0.1,1.8,0.3,2.7,0.4c-0.1,0-0.1-0.1-0.2-0.1c0.1,0,0.2,0,0.2,0c-7.6-5.1-12.6-13.8-12.6-23.6 c0-4.5,1.1-8.7,3-12.5c0.3-0.6,0.6-1.2,0.9-1.7c12.6,15.4,30.7,26,51.4,28.9C139.8,120,142.1,120.3,144.5,120.4 C144.5,120.4,144.5,120.4,144.5,120.4z"></path> </g> </g> </svg> 