<?xml version="1.0" encoding="UTF-8"?> <!-- Generator: Adobe Illustrator 28.2.0, SVG Export Plug-In . SVG Version: 6.00 Build 0) --> <svg xmlns="http://www.w3.org/2000/svg" xmlns:xlink="http://www.w3.org/1999/xlink" id="Layer_1" x="0px" y="0px" viewBox="0 0 80 80" style="enable-background:new 0 0 80 80;" xml:space="preserve"> <style type="text/css"> .st0{fill:#F2F5FF;} .st1{fill:#FFFFFF;} .st2{fill:none;stroke:#FFFFFF;stroke-width:0.5;stroke-miterlimit:10;} .st3{fill:#2555FF;} .st4{fill:#D66A24;} .st5{fill:none;stroke:#D66A24;stroke-width:0.5;stroke-miterlimit:10;} </style> <path class="st0" d="M63.8,71.5l-0.3-0.6l2.2-1.2c0,0,0,0,0,0c0,0,0-0.1,0-0.1v-45c0-0.3-0.2-0.5-0.3-0.6L40.1,9.3c0,0,0,0,0,0 c-0.2,0.1-1.4,0.8-2.2,1.2L37.5,10l1.1-0.6c0.6-0.3,0.9-0.5,1.1-0.6l0,0c0.2-0.1,0.4-0.1,0.6,0l25.3,14.6c0.4,0.2,0.6,0.7,0.6,1.2 v45c0,0.3-0.1,0.6-0.4,0.7L63.8,71.5z"></path> <path class="st0" d="M63.6,71.4c-0.1,0-0.2,0-0.3-0.1L45.3,61l0.3-0.5l17.9,10.3c0,0,0,0,0-0.1V25.9c0-0.2-0.2-0.5-0.3-0.6 L37.8,10.6c0,0,0,0,0,0.1v28.8h-0.6V10.7c0-0.3,0.1-0.5,0.3-0.6c0.2-0.1,0.4-0.1,0.6,0l25.4,14.7c0.4,0.2,0.6,0.7,0.6,1.2v44.8 c0,0.3-0.1,0.5-0.3,0.6C63.8,71.4,63.7,71.4,63.6,71.4z"></path> <g> <path class="st1" d="M63.8,71.5l-0.3-0.6l2.2-1.2c0,0,0,0,0,0c0,0,0-0.1,0-0.1v-45c0-0.3-0.2-0.5-0.3-0.6L40.1,9.3c0,0,0,0,0,0 c-0.2,0.1-1.4,0.8-2.2,1.2L37.5,10l1.1-0.6c0.6-0.3,0.9-0.5,1.1-0.6l0,0c0.2-0.1,0.4-0.1,0.6,0l25.3,14.6c0.4,0.2,0.6,0.7,0.6,1.2 v45c0,0.3-0.1,0.6-0.4,0.7L63.8,71.5z"></path> </g> <g> <path class="st1" d="M63.6,71.4c-0.1,0-0.2,0-0.3-0.1L45.3,61l0.3-0.5l17.9,10.3c0,0,0,0,0-0.1V25.9c0-0.2-0.2-0.5-0.3-0.6 L37.8,10.6c0,0,0,0,0,0.1v28.8h-0.6V10.7c0-0.3,0.1-0.5,0.3-0.6c0.2-0.1,0.4-0.1,0.6,0l25.4,14.7c0.4,0.2,0.6,0.7,0.6,1.2v44.8 c0,0.3-0.1,0.5-0.3,0.6C63.8,71.4,63.7,71.4,63.6,71.4z"></path> </g> <path class="st2" d="M42.7,34.3c0,0,0.1,0,0.1,0c0,0,0.1-0.1,0.1-0.2v-2.9c0-0.2-0.2-0.5-0.3-0.6l-2.3-1.3c0,0-0.1,0-0.1,0 c0,0-0.1,0.1-0.1,0.2v2.9c0,0.2,0.2,0.5,0.3,0.6L42.7,34.3z M42.7,34.6c-0.1,0-0.2,0-0.2-0.1l-2.3-1.3c-0.3-0.2-0.5-0.6-0.5-0.9 v-2.9c0-0.2,0.1-0.4,0.2-0.5c0.1-0.1,0.3-0.1,0.4,0l2.3,1.3c0.3,0.2,0.5,0.6,0.5,0.9v2.9c0,0.2-0.1,0.4-0.2,0.5 C42.9,34.6,42.8,34.6,42.7,34.6z"></path> <path class="st2" d="M49.9,38.3c0,0,0.1,0,0.1,0c0,0,0.1-0.1,0.1-0.2v-2.9c0-0.2-0.2-0.5-0.3-0.6l-2.3-1.3c0,0-0.1,0-0.1,0 c0,0-0.1,0.1-0.1,0.2v2.9c0,0.2,0.2,0.5,0.3,0.6L49.9,38.3z M50,38.7c-0.1,0-0.2,0-0.2-0.1l-2.3-1.3c-0.3-0.2-0.5-0.6-0.5-0.9v-2.9 c0-0.2,0.1-0.4,0.2-0.5c0.1-0.1,0.3-0.1,0.4,0l2.3,1.3c0.3,0.2,0.5,0.6,0.5,0.9v2.9c0,0.2-0.1,0.4-0.2,0.5 C50.1,38.7,50,38.7,50,38.7z"></path> <path class="st2" d="M52.6,36.3C52.6,36.3,52.6,36.3,52.6,36.3c-0.1,0-0.1,0.1-0.1,0.2v2.9c0,0.2,0.2,0.5,0.3,0.6l2.3,1.3 c0,0,0.1,0,0.1,0c0,0,0.1-0.1,0.1-0.2v-2.9c0-0.2-0.2-0.5-0.3-0.6L52.6,36.3C52.7,36.4,52.7,36.3,52.6,36.3z M55.3,41.8 c-0.1,0-0.2,0-0.2-0.1l-2.3-1.3c-0.3-0.2-0.5-0.6-0.5-0.9v-2.9c0-0.2,0.1-0.4,0.2-0.5c0.1-0.1,0.3-0.1,0.4,0l2.3,1.3 c0.3,0.2,0.5,0.6,0.5,0.9v2.9c0,0.2-0.1,0.4-0.2,0.5C55.4,41.7,55.4,41.8,55.3,41.8z"></path> <path class="st3" d="M57.7,39.4C57.6,39.4,57.6,39.4,57.7,39.4c-0.1,0-0.1,0.1-0.1,0.2v2.9c0,0.2,0.2,0.5,0.3,0.6l2.3,1.3 c0,0,0.1,0,0.1,0c0,0,0.1-0.1,0.1-0.2v-2.9c0-0.2-0.2-0.5-0.3-0.6L57.7,39.4C57.7,39.4,57.7,39.4,57.7,39.4z M60.3,44.8 c-0.1,0-0.2,0-0.2-0.1l-2.3-1.3c-0.3-0.2-0.5-0.6-0.5-0.9v-2.9c0-0.2,0.1-0.4,0.2-0.5c0.1-0.1,0.3-0.1,0.4,0l2.3,1.3 c0.3,0.2,0.5,0.6,0.5,0.9v2.9c0,0.2-0.1,0.4-0.2,0.5C60.4,44.8,60.4,44.8,60.3,44.8z"></path> <path class="st2" d="M43.1,39.8h-0.3v-1.9c0-0.2-0.2-0.5-0.3-0.6l-2.3-1.3c0,0-0.1,0-0.1,0c0,0-0.1,0.1-0.1,0.2v2.8h-0.3v-2.8 c0-0.2,0.1-0.4,0.2-0.5c0.1-0.1,0.3-0.1,0.4,0l2.3,1.3c0.3,0.2,0.5,0.6,0.5,0.9V39.8z"></path> <path class="st2" d="M49.9,45c0,0,0.1,0,0.1,0c0,0,0.1-0.1,0.1-0.2V42c0-0.2-0.2-0.5-0.3-0.6L47.4,40c0,0-0.1,0-0.1,0 c0,0-0.1,0.1-0.1,0.2v2.9c0,0.2,0.2,0.5,0.3,0.6L49.9,45z M50,45.4c-0.1,0-0.2,0-0.2-0.1L47.4,44c-0.3-0.2-0.5-0.6-0.5-0.9v-2.9 c0-0.2,0.1-0.4,0.2-0.5c0.1-0.1,0.3-0.1,0.4,0l2.3,1.3c0.3,0.2,0.5,0.6,0.5,0.9v2.9c0,0.2-0.1,0.4-0.2,0.5 C50.1,45.4,50,45.4,50,45.4z"></path> <path class="st2" d="M55.2,48.1c0,0,0.1,0,0.1,0c0,0,0.1-0.1,0.1-0.2v-2.9c0-0.2-0.2-0.5-0.3-0.6l-2.3-1.3c0,0-0.1,0-0.1,0 c0,0-0.1,0.1-0.1,0.2v2.9c0,0.2,0.2,0.5,0.3,0.6L55.2,48.1z M55.3,48.5c-0.1,0-0.2,0-0.2-0.1L52.7,47c-0.3-0.2-0.5-0.6-0.5-0.9v-2.9 c0-0.2,0.1-0.4,0.2-0.5c0.1-0.1,0.3-0.1,0.4,0l2.3,1.3c0.3,0.2,0.5,0.6,0.5,0.9V48c0,0.2-0.1,0.4-0.2,0.5 C55.4,48.4,55.4,48.5,55.3,48.5z"></path> <path class="st2" d="M57.7,46.1C57.6,46.1,57.6,46.1,57.7,46.1c-0.1,0-0.1,0.1-0.1,0.2v2.9c0,0.2,0.2,0.5,0.3,0.6l2.3,1.3 c0,0,0.1,0,0.1,0c0,0,0.1-0.1,0.1-0.2v-2.9c0-0.2-0.2-0.5-0.3-0.6L57.7,46.1C57.7,46.1,57.7,46.1,57.7,46.1z M60.3,51.5 c-0.1,0-0.2,0-0.2-0.1l-2.3-1.3c-0.3-0.2-0.5-0.6-0.5-0.9v-2.9c0-0.2,0.1-0.4,0.2-0.5c0.1-0.1,0.3-0.1,0.4,0l2.3,1.3 c0.3,0.2,0.5,0.6,0.5,0.9V51c0,0.2-0.1,0.4-0.2,0.5C60.4,51.5,60.4,51.5,60.3,51.5z"></path> <path class="st2" d="M49.9,51.7c0,0,0.1,0,0.1,0c0,0,0.1-0.1,0.1-0.2v-2.9c0-0.2-0.2-0.5-0.3-0.6l-2.3-1.3c0,0-0.1,0-0.1,0 c0,0-0.1,0.1-0.1,0.2v2.9c0,0.2,0.2,0.5,0.3,0.6L49.9,51.7z M50,52.1c-0.1,0-0.2,0-0.2-0.1l-2.3-1.3c-0.3-0.2-0.5-0.6-0.5-0.9v-2.9 c0-0.2,0.1-0.4,0.2-0.5c0.1-0.1,0.3-0.1,0.4,0l2.3,1.3c0.3,0.2,0.5,0.6,0.5,0.9v2.9c0,0.2-0.1,0.4-0.2,0.5 C50.1,52.1,50,52.1,50,52.1z"></path> <path class="st2" d="M49.9,58.4c0,0,0.1,0,0.1,0c0,0,0.1-0.1,0.1-0.2v-2.9c0-0.2-0.2-0.5-0.3-0.6l-2.3-1.3c0,0-0.1,0-0.1,0 c0,0-0.1,0.1-0.1,0.2v2.9c0,0.2,0.2,0.5,0.3,0.6L49.9,58.4z M50,58.8c-0.1,0-0.2,0-0.2-0.1l-2.3-1.3c-0.3-0.2-0.5-0.6-0.5-0.9v-2.9 c0-0.2,0.1-0.4,0.2-0.5c0.1-0.1,0.3-0.1,0.4,0l2.3,1.3c0.3,0.2,0.5,0.6,0.5,0.9v2.9c0,0.2-0.1,0.4-0.2,0.5 C50.1,58.8,50,58.8,50,58.8z"></path> <path class="st3" d="M40.3,15.5C40.3,15.5,40.2,15.5,40.3,15.5c-0.1,0-0.1,0.1-0.1,0.2v8c0,0.3,0.2,0.6,0.4,0.7l20.3,11.7 c0.1,0,0.2,0.1,0.2,0c0,0,0.1-0.1,0.1-0.2V28c0-0.3-0.2-0.6-0.4-0.7L40.4,15.6C40.4,15.5,40.3,15.5,40.3,15.5z M61.1,36.5 c-0.1,0-0.2,0-0.3-0.1L40.4,24.7c-0.3-0.2-0.6-0.6-0.6-1v-8c0-0.2,0.1-0.4,0.2-0.5c0.1-0.1,0.3-0.1,0.5,0L60.9,27 c0.3,0.2,0.6,0.6,0.6,1V36c0,0.2-0.1,0.4-0.2,0.5C61.2,36.5,61.1,36.5,61.1,36.5z"></path> <path class="st2" d="M55.2,61.4c0,0,0.1,0,0.1,0c0,0,0.1-0.1,0.1-0.2v-9.4c0-0.2-0.2-0.5-0.3-0.6l-2.3-1.3c0,0-0.1,0-0.1,0 c0,0-0.1,0.1-0.1,0.2v9.4c0,0.2,0.2,0.5,0.3,0.6L55.2,61.4z M55.3,61.8c-0.1,0-0.2,0-0.2-0.1l-2.3-1.3c-0.3-0.2-0.5-0.6-0.5-0.9V50 c0-0.2,0.1-0.4,0.2-0.5c0.1-0.1,0.3-0.1,0.4,0l2.3,1.3c0.3,0.2,0.5,0.6,0.5,0.9v9.4c0,0.2-0.1,0.4-0.2,0.5 C55.4,61.8,55.4,61.8,55.3,61.8z"></path> <path class="st3" d="M60.1,64.6l-2.3-1.3c-0.2-0.1-0.4-0.5-0.4-0.8v-9.4c0-0.3,0.2-0.4,0.4-0.3l2.3,1.3c0.2,0.1,0.4,0.5,0.4,0.8v9.4 C60.5,64.6,60.4,64.8,60.1,64.6z"></path> <path class="st4" d="M60.2,64.5c0,0,0.1,0,0.1,0c0,0,0.1-0.1,0.1-0.2v-9.4c0-0.2-0.2-0.5-0.3-0.6l-2.3-1.3c0,0-0.1,0-0.1,0 c0,0-0.1,0.1-0.1,0.2v9.4c0,0.2,0.2,0.5,0.3,0.6L60.2,64.5z M60.3,64.8c-0.1,0-0.2,0-0.2-0.1l-2.3-1.3c-0.3-0.2-0.5-0.6-0.5-0.9 v-9.4c0-0.2,0.1-0.4,0.2-0.5c0.1-0.1,0.3-0.1,0.4,0l2.3,1.3c0.3,0.2,0.5,0.6,0.5,0.9v9.4c0,0.2-0.1,0.4-0.2,0.5 C60.4,64.8,60.4,64.8,60.3,64.8z"></path> <path class="st1" d="M44.4,22.6l-0.8-0.5l0.3-0.5l0.8,0.5L44.4,22.6z M46.1,23.6l-0.8-0.5l0.3-0.5l0.8,0.5L46.1,23.6z M47.7,24.5 L46.9,24l0.3-0.5L48,24L47.7,24.5z M49.3,25.4L48.5,25l0.3-0.5l0.8,0.5L49.3,25.4z M51,26.4l-0.8-0.5l0.3-0.5l0.8,0.5L51,26.4z M52.6,27.3l-0.8-0.5l0.3-0.5l0.8,0.5L52.6,27.3z M54.2,28.3l-0.8-0.5l0.3-0.5l0.8,0.5L54.2,28.3z M55.8,29.2L55,28.7l0.3-0.5 l0.8,0.5L55.8,29.2z M57.5,30.2l-0.8-0.5l0.3-0.5l0.8,0.5L57.5,30.2z"></path> <path class="st2" d="M26.5,59c-0.6,0-1.3-0.1-1.8-0.2l0.1-0.3c1.9,0.4,4.3,0.1,5.7-0.7c0.9-0.5,1.4-1.2,1.5-1.9c0-0.4,0-34.9,0-35.3 h0.3l0,33.8c0,0.9,0,1.3,0,1.5h0c0,0.8-0.6,1.6-1.6,2.2C29.5,58.7,28,59,26.5,59z"></path> <path class="st2" d="M21.5,49.2h-0.3V20.6h0.3V49.2z"></path> <path class="st2" d="M26.7,17.8c-1.3,0-2.7,0.3-3.7,0.9c-1,0.5-1.5,1.2-1.5,2c0,0.7,0.5,1.4,1.5,2c2,1.1,5.4,1.1,7.4,0 c1-0.5,1.5-1.2,1.5-2c0-0.7-0.5-1.4-1.5-2C29.3,18.1,28,17.8,26.7,17.8z M26.7,23.8c-1.4,0-2.8-0.3-3.8-0.9 c-1.1-0.6-1.6-1.4-1.6-2.2c0-0.9,0.6-1.7,1.6-2.2c2.1-1.2,5.6-1.2,7.7,0c1.1,0.6,1.6,1.4,1.6,2.2c0,0.9-0.6,1.7-1.6,2.2 C29.5,23.5,28.1,23.8,26.7,23.8z"></path> <path class="st3" d="M19.1,67.9c-0.7,0-1.3-0.1-2-0.2c-2.1-0.5-3.5-1.6-3.5-2.9V52.3H14v12.4c0.1,1.1,1.3,2.1,3.3,2.6 c1.2,0.3,2.6,0.3,3.8,0c2-0.5,3.2-1.5,3.3-2.6c0-0.3,0-12.3,0-12.4h0.3l0,10.5c0,1.2,0,1.7,0,1.9h0c-0.1,1.3-1.4,2.4-3.5,2.9 C20.5,67.8,19.8,67.9,19.1,67.9z"></path> <path class="st3" d="M19.1,49.5c-1.3,0-2.7,0.3-3.7,0.9c-1,0.5-1.5,1.2-1.5,2c0,0.7,0.5,1.4,1.5,2c2,1.1,5.4,1.1,7.4,0 c1-0.5,1.5-1.2,1.5-2c0-0.7-0.5-1.4-1.5-2C21.8,49.8,20.5,49.5,19.1,49.5z M19.1,55.4c-1.4,0-2.8-0.3-3.8-0.9 c-1.1-0.6-1.6-1.4-1.6-2.2c0-0.9,0.6-1.7,1.6-2.2c2.1-1.2,5.6-1.2,7.7,0c1.1,0.6,1.6,1.4,1.6,2.2c0,0.9-0.6,1.7-1.6,2.2 C21.9,55.2,20.5,55.4,19.1,55.4z"></path> <path class="st3" d="M39.5,67.9c-0.7,0-1.3-0.1-2-0.2c-2.1-0.5-3.5-1.6-3.5-2.9V42.6h0.3v22.1c0.1,1.1,1.3,2.1,3.3,2.6 c1.2,0.3,2.6,0.3,3.8,0c2-0.5,3.2-1.5,3.3-2.6c0-0.3,0-21.9,0-22.1H45l0,21.2c0,0.5,0,0.8,0,1h0c-0.1,1.3-1.4,2.4-3.5,2.9 C40.9,67.8,40.2,67.9,39.5,67.9z"></path> <path class="st3" d="M39.5,39.8c-1.3,0-2.7,0.3-3.7,0.9c-1,0.5-1.5,1.2-1.5,2c0,0.7,0.5,1.4,1.5,2c2,1.1,5.4,1.1,7.4,0 c1-0.5,1.5-1.2,1.5-2c0-0.7-0.5-1.4-1.5-2C42.2,40,40.9,39.8,39.5,39.8z M39.5,45.7c-1.4,0-2.8-0.3-3.8-0.9 c-1.1-0.6-1.6-1.4-1.6-2.2c0-0.9,0.6-1.7,1.6-2.2c2.1-1.2,5.6-1.2,7.7,0c1.1,0.6,1.6,1.4,1.6,2.2c0,0.9-0.6,1.7-1.6,2.2 C42.3,45.4,40.9,45.7,39.5,45.7z"></path> <g> <path class="st5" d="M57.7,39.4C57.6,39.4,57.6,39.4,57.7,39.4c-0.1,0-0.1,0.1-0.1,0.2v2.9c0,0.2,0.2,0.5,0.3,0.6l2.3,1.3 c0,0,0.1,0,0.1,0c0,0,0.1-0.1,0.1-0.2v-2.9c0-0.2-0.2-0.5-0.3-0.6L57.7,39.4C57.7,39.4,57.7,39.4,57.7,39.4z M60.3,44.8 c-0.1,0-0.2,0-0.2-0.1l-2.3-1.3c-0.3-0.2-0.5-0.6-0.5-0.9v-2.9c0-0.2,0.1-0.4,0.2-0.5c0.1-0.1,0.3-0.1,0.4,0l2.3,1.3 c0.3,0.2,0.5,0.6,0.5,0.9v2.9c0,0.2-0.1,0.4-0.2,0.5C60.4,44.8,60.4,44.8,60.3,44.8z"></path> </g> <g> <path class="st5" d="M40.3,15.5C40.3,15.5,40.2,15.5,40.3,15.5c-0.1,0-0.1,0.1-0.1,0.2v8c0,0.3,0.2,0.6,0.4,0.7l20.3,11.7 c0.1,0,0.2,0.1,0.2,0c0,0,0.1-0.1,0.1-0.2V28c0-0.3-0.2-0.6-0.4-0.7L40.4,15.6C40.4,15.5,40.3,15.5,40.3,15.5z M61.1,36.5 c-0.1,0-0.2,0-0.3-0.1L40.4,24.7c-0.3-0.2-0.6-0.6-0.6-1v-8c0-0.2,0.1-0.4,0.2-0.5c0.1-0.1,0.3-0.1,0.5,0L60.9,27 c0.3,0.2,0.6,0.6,0.6,1V36c0,0.2-0.1,0.4-0.2,0.5C61.2,36.5,61.1,36.5,61.1,36.5z"></path> </g> <g> <path class="st4" d="M60.1,64.6l-2.3-1.3c-0.2-0.1-0.4-0.5-0.4-0.8v-9.4c0-0.3,0.2-0.4,0.4-0.3l2.3,1.3c0.2,0.1,0.4,0.5,0.4,0.8 v9.4C60.5,64.6,60.4,64.8,60.1,64.6z"></path> </g> <g> <path class="st5" d="M19.1,67.9c-0.7,0-1.3-0.1-2-0.2c-2.1-0.5-3.5-1.6-3.5-2.9V52.3H14v12.4c0.1,1.1,1.3,2.1,3.3,2.6 c1.2,0.3,2.6,0.3,3.8,0c2-0.5,3.2-1.5,3.3-2.6c0-0.3,0-12.3,0-12.4h0.3l0,10.5c0,1.2,0,1.7,0,1.9h0c-0.1,1.3-1.4,2.4-3.5,2.9 C20.5,67.8,19.8,67.9,19.1,67.9z"></path> </g> <g> <path class="st5" d="M19.1,49.5c-1.3,0-2.7,0.3-3.7,0.9c-1,0.5-1.5,1.2-1.5,2c0,0.7,0.5,1.4,1.5,2c2,1.1,5.4,1.1,7.4,0 c1-0.5,1.5-1.2,1.5-2c0-0.7-0.5-1.4-1.5-2C21.8,49.8,20.5,49.5,19.1,49.5z M19.1,55.4c-1.4,0-2.8-0.3-3.8-0.9 c-1.1-0.6-1.6-1.4-1.6-2.2c0-0.9,0.6-1.7,1.6-2.2c2.1-1.2,5.6-1.2,7.7,0c1.1,0.6,1.6,1.4,1.6,2.2c0,0.9-0.6,1.7-1.6,2.2 C21.9,55.2,20.5,55.4,19.1,55.4z"></path> </g> <g> <path class="st5" d="M39.5,67.9c-0.7,0-1.3-0.1-2-0.2c-2.1-0.5-3.5-1.6-3.5-2.9V42.6h0.3v22.1c0.1,1.1,1.3,2.1,3.3,2.6 c1.2,0.3,2.6,0.3,3.8,0c2-0.5,3.2-1.5,3.3-2.6c0-0.3,0-21.9,0-22.1H45l0,21.2c0,0.5,0,0.8,0,1h0c-0.1,1.3-1.4,2.4-3.5,2.9 C40.9,67.8,40.2,67.9,39.5,67.9z"></path> </g> <g> <path class="st5" d="M39.5,39.8c-1.3,0-2.7,0.3-3.7,0.9c-1,0.5-1.5,1.2-1.5,2c0,0.7,0.5,1.4,1.5,2c2,1.1,5.4,1.1,7.4,0 c1-0.5,1.5-1.2,1.5-2c0-0.7-0.5-1.4-1.5-2C42.2,40,40.9,39.8,39.5,39.8z M39.5,45.7c-1.4,0-2.8-0.3-3.8-0.9 c-1.1-0.6-1.6-1.4-1.6-2.2c0-0.9,0.6-1.7,1.6-2.2c2.1-1.2,5.6-1.2,7.7,0c1.1,0.6,1.6,1.4,1.6,2.2c0,0.9-0.6,1.7-1.6,2.2 C42.3,45.4,40.9,45.7,39.5,45.7z"></path> </g> </svg> 