<?xml version="1.0" encoding="UTF-8"?> <!-- Generator: Adobe Illustrator 28.2.0, SVG Export Plug-In . SVG Version: 6.00 Build 0) --> <svg xmlns="http://www.w3.org/2000/svg" xmlns:xlink="http://www.w3.org/1999/xlink" id="Layer_1" x="0px" y="0px" viewBox="0 0 180 180" style="enable-background:new 0 0 180 180;" xml:space="preserve"> <style type="text/css"> .st0{fill:none;stroke:#FFFFFF;} .st1{fill-rule:evenodd;clip-rule:evenodd;fill:#FFFFFF;} .st2{fill:#FF6400;} </style> <circle class="st0" cx="90" cy="90" r="69.5"></circle> <circle class="st0" cx="90" cy="90" r="59.5"></circle> <path class="st1" d="M119.6,63.3c-0.4-0.6-0.8-1.1-1.3-1.6c-0.5-0.5-1-0.9-1.6-1.3l-0.6,0.8c0.5,0.3,1,0.7,1.4,1.2 c0.4,0.4,0.8,0.9,1.2,1.4L119.6,63.3z M113,58.8l-0.2,1c-1.1-0.3-2.4-0.4-3.8-0.4l0-1C110.5,58.4,111.8,58.5,113,58.8z M105,58.7 l0.2,1c-1.2,0.2-2.5,0.5-3.8,0.9l-0.3-1C102.4,59.2,103.8,58.9,105,58.7z M97.3,61l0.4,0.9c-1.2,0.5-2.4,1-3.6,1.6l-0.5-0.9 C94.9,62.1,96.1,61.5,97.3,61z M90.1,64.6l0.5,0.9c-1.1,0.7-2.2,1.4-3.3,2.1l-0.6-0.8C87.8,66,89,65.3,90.1,64.6z M83.4,69.2L84,70 c-1,0.8-2.1,1.6-3.1,2.5l-0.7-0.8C81.3,70.8,82.4,70,83.4,69.2z M77.3,74.4l0.7,0.7c-0.5,0.5-1,0.9-1.4,1.4 c-0.5,0.5-0.9,0.9-1.4,1.4l-0.7-0.7c0.5-0.5,0.9-1,1.4-1.4C76.3,75.4,76.8,74.9,77.3,74.4z M71.7,80.3l0.8,0.7 C71.6,82,70.8,83,70,84l-0.8-0.6C70,82.4,70.9,81.3,71.7,80.3z M66.8,86.7l0.8,0.6c-0.8,1.1-1.5,2.2-2.1,3.3l-0.9-0.5 C65.3,89,66,87.8,66.8,86.7z M62.7,93.6l0.9,0.5c-0.6,1.2-1.2,2.4-1.6,3.6L61,97.3C61.5,96.1,62.1,94.9,62.7,93.6z M59.7,101.1 l1,0.3c-0.4,1.3-0.7,2.6-0.9,3.8l-1-0.2C58.9,103.8,59.2,102.4,59.7,101.1z M58.4,109l1,0c0,1.4,0.1,2.6,0.4,3.8l-1,0.2 C58.5,111.8,58.4,110.5,58.4,109z M60.4,116.7l0.8-0.6c0.3,0.5,0.7,1,1.2,1.4c0.4,0.4,0.9,0.8,1.4,1.2l-0.6,0.8 c-0.6-0.4-1.1-0.8-1.6-1.3C61.2,117.8,60.8,117.3,60.4,116.7z M67,121.2c1.2,0.3,2.6,0.5,4,0.5l0-1c-1.4,0-2.6-0.2-3.8-0.4L67,121.2 z M75,121.3c1.3-0.2,2.6-0.5,3.9-0.9l-0.3-1c-1.3,0.4-2.6,0.7-3.8,0.9L75,121.3z M82.7,119l-0.4-0.9c1.2-0.5,2.4-1,3.6-1.6l0.5,0.9 C85.1,117.9,83.9,118.5,82.7,119z M89.9,115.4l-0.5-0.9c1.1-0.7,2.2-1.4,3.3-2.1l0.6,0.8C92.2,114,91,114.7,89.9,115.4z M96.6,110.8 L96,110c1-0.8,2.1-1.6,3.1-2.5l0.7,0.8C98.7,109.1,97.6,110,96.6,110.8z M102.7,105.6l-0.7-0.7c0.5-0.5,1-0.9,1.4-1.4 s0.9-0.9,1.4-1.4l0.7,0.7c-0.5,0.5-0.9,1-1.4,1.4C103.7,104.6,103.2,105.1,102.7,105.6z M108.3,99.7l-0.8-0.7c0.9-1,1.7-2.1,2.5-3.1 l0.8,0.6C110,97.6,109.2,98.7,108.3,99.7z M113.2,93.3l-0.8-0.6c0.8-1.1,1.5-2.2,2.1-3.3l0.9,0.5C114.7,91,114,92.2,113.2,93.3z M117.3,86.4l-0.9-0.5c0.6-1.2,1.2-2.4,1.6-3.6l0.9,0.4C118.5,83.9,117.9,85.1,117.3,86.4z M120.3,78.9l-1-0.3 c0.4-1.3,0.7-2.6,0.9-3.8l1,0.2C121.1,76.2,120.8,77.6,120.3,78.9z M121.6,71l-1,0c0-1.4-0.1-2.6-0.4-3.8l1-0.2 C121.5,68.2,121.6,69.5,121.6,71z"></path> <ellipse transform="matrix(0.1091 -0.994 0.994 0.1091 44.2972 172.5743)" class="st2" cx="118.4" cy="61.6" rx="10" ry="10"></ellipse> </svg> 