<?xml version="1.0" encoding="UTF-8"?> <!-- Generator: Adobe Illustrator 26.0.3, SVG Export Plug-In . SVG Version: 6.00 Build 0) --> <svg xmlns="http://www.w3.org/2000/svg" xmlns:xlink="http://www.w3.org/1999/xlink" id="Layer_1" x="0px" y="0px" viewBox="0 0 23 27" style="enable-background:new 0 0 23 27;" xml:space="preserve"> <style type="text/css"> .st0{clip-path:url(#SVGID_00000143614140958727403070000015563425032629918882_);} .st1{fill-rule:evenodd;clip-rule:evenodd;fill:#FFFFFF;} </style> <g> <defs> <rect id="SVGID_1_" y="0" width="23" height="27"></rect> </defs> <clipPath id="SVGID_00000176041607765920373170000002357059390279678650_"> <use xlink:href="#SVGID_1_" style="overflow:visible;"></use> </clipPath> <g style="clip-path:url(#SVGID_00000176041607765920373170000002357059390279678650_);"> <path class="st1" d="M3.5,11.5c0,0.5-0.4,0.8-0.9,0.8H0.8C0.4,12.4,0,12,0,11.5c0-0.5,0.4-0.8,0.8-0.8h1.9 C3.1,10.7,3.5,11.1,3.5,11.5z M5.9,5.9C5.5,6.2,5,6.2,4.7,5.9L3.4,4.6C3,4.2,3,3.7,3.4,3.4c0.3-0.3,0.9-0.3,1.2,0l1.3,1.3 C6.2,5,6.2,5.6,5.9,5.9z M11.5,3.6c-0.5,0-0.8-0.4-0.8-0.8V0.8C10.7,0.4,11,0,11.5,0c0.5,0,0.8,0.4,0.8,0.8v1.9 C12.3,3.2,12,3.6,11.5,3.6z M17.1,5.9c-0.3-0.3-0.3-0.9,0-1.2l1.3-1.3c0.3-0.3,0.8-0.3,1.2,0c0.3,0.3,0.3,0.9,0,1.2l-1.3,1.3 C18,6.2,17.5,6.2,17.1,5.9z M23,11.5c0,0.4-0.4,0.8-0.8,0.8h-1.9c-0.4,0-0.8-0.4-0.8-0.8c0-0.5,0.4-0.8,0.8-0.8h1.9 C22.6,10.7,23,11.1,23,11.5z M5.4,11.1c0-3.2,2.7-5.7,6.1-5.7c3.4,0,6.1,2.5,6.1,5.7c0,1.6-0.5,2.7-1,4c-0.6,1.5-1.4,3.2-1.7,6.5 c0,0.3-0.2,0.6-0.6,0.6H8.6c-0.4,0-0.5-0.2-0.6-0.6c-0.3-3.3-1.1-5-1.7-6.5C5.8,13.8,5.4,12.7,5.4,11.1z M14.4,24.1H8.6 c-0.3,0-0.6-0.2-0.6-0.6C8,23.2,8.3,23,8.6,23h5.8c0.3,0,0.6,0.2,0.6,0.6C15,23.9,14.7,24.1,14.4,24.1z M14.2,25 c-0.1,1.1-1.3,1.8-2.7,1.8c-1.4,0-2.7-0.7-2.7-1.8H14.2z"></path> </g> </g> </svg> 