<?xml version="1.0" encoding="UTF-8"?> <!-- Generator: Adobe Illustrator 26.0.3, SVG Export Plug-In . SVG Version: 6.00 Build 0) --> <svg xmlns="http://www.w3.org/2000/svg" xmlns:xlink="http://www.w3.org/1999/xlink" id="Layer_1" x="0px" y="0px" viewBox="0 0 283.5 283.5" style="enable-background:new 0 0 283.5 283.5;" xml:space="preserve"> <style type="text/css"> .st0{fill:#FFFFFF;} </style> <g id="SVGRepo_bgCarrier"> </g> <g id="SVGRepo_tracerCarrier"> </g> <g id="SVGRepo_iconCarrier"> <path class="st0" d="M141.7,0c-28,0-55.4,8.3-78.7,23.9S21.5,61.6,10.8,87.5c-10.7,25.9-13.5,54.4-8.1,81.9 c5.5,27.5,19,52.7,38.8,72.6c19.8,19.8,45.1,33.3,72.6,38.8c27.5,5.5,56,2.7,81.9-8.1c25.9-10.7,48-28.9,63.6-52.2 c15.6-23.3,23.9-50.7,23.9-78.7c0-37.6-14.9-73.6-41.5-100.2C215.4,14.9,179.3,0,141.7,0z M211.4,97.1l-23.2,109.7 c-1.8,7.8-6.4,9.6-12.9,6l-35.4-26.2L122.1,203c-0.8,1.1-1.9,2-3.1,2.6c-1.2,0.6-2.6,0.9-4,1l2.5-35.4l65.6-59.4 c3-2.5,0-3.9-4.3-1.4l-80.4,50.5l-35.4-11c-7.6-2.3-7.8-7.6,1.6-11.2l136.6-53.1C207.8,83.6,213.5,87.5,211.4,97.1z"></path> </g> </svg> 