<?xml version="1.0" encoding="UTF-8"?> <!-- Generator: Adobe Illustrator 28.2.0, SVG Export Plug-In . SVG Version: 6.00 Build 0) --> <svg xmlns="http://www.w3.org/2000/svg" xmlns:xlink="http://www.w3.org/1999/xlink" id="Layer_1" x="0px" y="0px" viewBox="0 0 80 80" style="enable-background:new 0 0 80 80;" xml:space="preserve"> <style type="text/css"> .st0{fill:#FFFFFF;} .st1{fill:#F2F5FF;} .st2{fill:#D66A24;} </style> <path class="st0" d="M32,18.2l-12.4-5.1c-0.1,0-0.2,0-0.2,0c-0.1,0-3.4,1.9-5.2,2.9l-0.3-0.5c5.2-2.9,5.2-2.9,5.2-2.9 c0.1-0.1,0.4-0.1,0.7,0l12.4,5.1L32,18.2z M54.9,73.8l-0.3-0.5c1.9-1.1,4.8-2.7,5.2-2.9c0-0.1,0.1-0.2,0.1-0.4L57,50.2 c-0.1-0.5,0.1-0.9,0.4-1.1l6.4-3.5l5.1-2.8c0.1,0,0.1-0.2,0.1-0.2c0-0.4-0.2-0.9-0.6-1.3L52.5,29.5c-0.3-0.3-0.6-0.7-0.8-1.1 L44.6,7.7c-0.2-0.5-0.5-0.8-0.7-0.9c-0.1,0-0.2-0.1-0.2,0c-0.1,0.1-3.1,1.7-5.1,2.8L38.3,9c3.3-1.9,5.1-2.8,5.1-2.8 c0.2-0.1,0.5-0.1,0.7,0c0.5,0.2,0.9,0.7,1.1,1.3l7.1,20.7c0.1,0.3,0.3,0.6,0.6,0.8l15.9,11.8c0.6,0.4,0.9,1.2,0.9,1.8 c0,0.3-0.2,0.6-0.4,0.7l-5.1,2.8l-6.4,3.5c-0.1,0-0.1,0.2-0.1,0.4l2.7,19.8c0.1,0.4,0,0.8-0.3,1C60.1,70.9,60,70.9,54.9,73.8z"></path> <path class="st0" d="M54.5,73.9c-0.3,0-0.7-0.2-1-0.6L40.1,57.5l0.5-0.4L54,72.9c0.3,0.3,0.5,0.4,0.6,0.4c0.1,0,0.1-0.2,0.1-0.4 L52,53c-0.1-0.5,0.1-0.9,0.4-1.1l11.5-6.3c0.1,0,0.1-0.2,0.1-0.2c0-0.4-0.2-0.9-0.6-1.3L47.5,32.3c-0.3-0.3-0.6-0.7-0.8-1.1 l-7.1-20.7c-0.2-0.6-0.6-0.9-0.9-0.9c-0.1,0-0.1,0-0.1,0.1l-7.1,12.5c-0.2,0.4-0.6,0.5-1.1,0.3L14.5,16c-0.1,0-0.2,0-0.2,0 c-0.1,0.1-0.1,0.5,0.2,1L24,33.3l-0.5,0.3l-9.6-16.3c-0.4-0.7-0.4-1.3-0.1-1.7c0.2-0.3,0.6-0.3,1-0.2l15.9,6.5c0.2,0.1,0.3,0,0.3,0 L38,9.3c0.2-0.3,0.4-0.4,0.7-0.4c0.6,0.1,1.2,0.6,1.4,1.4L47.3,31c0.1,0.3,0.3,0.6,0.6,0.8l15.9,11.8c0.6,0.4,0.9,1.2,0.9,1.8 c0,0.3-0.2,0.6-0.4,0.7l-11.5,6.3c-0.1,0-0.1,0.2-0.1,0.4l2.7,19.8c0.1,0.5-0.1,0.9-0.5,1.1C54.7,73.9,54.6,73.9,54.5,73.9z"></path> <path class="st0" d="M39.4,9.2c0.4,0.2,0.7,0.7,0.8,1.1l6.7,19.6c0.2,0.5,0.4,1.1,0.5,1.4c0.8-0.5,3.2-1.8,4.5-2.6 c0-0.1-0.1-0.2-0.1-0.3c0,0-7.1-20.7-7.1-20.7c-0.2-0.5-0.5-0.8-0.7-0.9c-0.1,0-0.2-0.1-0.2,0C43.7,6.8,43.1,7.1,39.4,9.2z M47.2,32 c-0.1,0-0.1,0-0.2-0.1c-0.3-0.3-0.6-1.2-0.7-1.8l-6.7-19.6c-0.2-0.5-0.5-0.8-0.7-0.9c-0.1,0-0.2-0.1-0.2,0c-0.1,0-0.3,0-0.4-0.1 c-0.1-0.1,0-0.3,0.1-0.4L38.4,9c0,0,0,0,0,0c4.9-2.7,5-2.8,5-2.8c0.2-0.1,0.5-0.1,0.7,0c0.5,0.2,0.9,0.7,1.1,1.3l7.1,20.7 c0,0.1,0.1,0.3,0.2,0.4c0,0.1,0.1,0.2,0,0.2c0,0.1-0.1,0.2-0.1,0.2l-4.2,2.4C47.6,31.8,47.3,32,47.2,32z"></path> <path class="st1" d="M52.6,52.9l2.7,19.8c0,0,0,0.1,0,0.1c2.5-1.4,4.1-2.3,4.4-2.4c0-0.1,0.1-0.2,0.1-0.4L57,50.2c0,0,0-0.1,0-0.1 l-4.4,2.4C52.6,52.5,52.6,52.7,52.6,52.9z M54.8,73.8c-0.1,0-0.2-0.1-0.3-0.2c-0.1-0.1,0-0.3,0.1-0.4c0.1,0,0.1-0.2,0.1-0.4L52,53 c0-0.5,0.1-0.8,0.3-1c0,0,0,0,0.1,0l5-2.8c0.1-0.1,0.3,0,0.4,0.1c0.1,0.1,0.1,0.3,0,0.4c-0.1,0.1-0.1,0.2-0.1,0.4l2.7,19.8 c0.1,0.4,0,0.8-0.3,1c0,0-0.1,0.1-5.2,2.9C54.9,73.8,54.8,73.8,54.8,73.8z"></path> <g> <path class="st0" d="M32,18.2l-12.4-5.1c-0.1,0-0.2,0-0.2,0c-0.1,0-3.4,1.9-5.2,2.9l-0.3-0.5c5.2-2.9,5.2-2.9,5.2-2.9 c0.1-0.1,0.4-0.1,0.7,0l12.4,5.1L32,18.2z M54.9,73.8l-0.3-0.5c1.9-1.1,4.8-2.7,5.2-2.9c0-0.1,0.1-0.2,0.1-0.4L57,50.2 c-0.1-0.5,0.1-0.9,0.4-1.1l6.4-3.5l5.1-2.8c0.1,0,0.1-0.2,0.1-0.2c0-0.4-0.2-0.9-0.6-1.3L52.5,29.5c-0.3-0.3-0.6-0.7-0.8-1.1 L44.6,7.7c-0.2-0.5-0.5-0.8-0.7-0.9c-0.1,0-0.2-0.1-0.2,0c-0.1,0.1-3.1,1.7-5.1,2.8L38.3,9c3.3-1.9,5.1-2.8,5.1-2.8 c0.2-0.1,0.5-0.1,0.7,0c0.5,0.2,0.9,0.7,1.1,1.3l7.1,20.7c0.1,0.3,0.3,0.6,0.6,0.8l15.9,11.8c0.6,0.4,0.9,1.2,0.9,1.8 c0,0.3-0.2,0.6-0.4,0.7l-5.1,2.8l-6.4,3.5c-0.1,0-0.1,0.2-0.1,0.4l2.7,19.8c0.1,0.4,0,0.8-0.3,1C60.1,70.9,60,70.9,54.9,73.8z"></path> </g> <g> <path class="st0" d="M54.5,73.9c-0.3,0-0.7-0.2-1-0.6L40.1,57.5l0.5-0.4L54,72.9c0.3,0.3,0.5,0.4,0.6,0.4c0.1,0,0.1-0.2,0.1-0.4 L52,53c-0.1-0.5,0.1-0.9,0.4-1.1l11.5-6.3c0.1,0,0.1-0.2,0.1-0.2c0-0.4-0.2-0.9-0.6-1.3L47.5,32.3c-0.3-0.3-0.6-0.7-0.8-1.1 l-7.1-20.7c-0.2-0.6-0.6-0.9-0.9-0.9c-0.1,0-0.1,0-0.1,0.1l-7.1,12.5c-0.2,0.4-0.6,0.5-1.1,0.3L14.5,16c-0.1,0-0.2,0-0.2,0 c-0.1,0.1-0.1,0.5,0.2,1L24,33.3l-0.5,0.3l-9.6-16.3c-0.4-0.7-0.4-1.3-0.1-1.7c0.2-0.3,0.6-0.3,1-0.2l15.9,6.5c0.2,0.1,0.3,0,0.3,0 L38,9.3c0.2-0.3,0.4-0.4,0.7-0.4c0.6,0.1,1.2,0.6,1.4,1.4L47.3,31c0.1,0.3,0.3,0.6,0.6,0.8l15.9,11.8c0.6,0.4,0.9,1.2,0.9,1.8 c0,0.3-0.2,0.6-0.4,0.7l-11.5,6.3c-0.1,0-0.1,0.2-0.1,0.4l2.7,19.8c0.1,0.5-0.1,0.9-0.5,1.1C54.7,73.9,54.6,73.9,54.5,73.9z"></path> </g> <g> <path class="st0" d="M39.4,9.2c0.4,0.2,0.7,0.7,0.8,1.1l6.7,19.6c0.2,0.5,0.4,1.1,0.5,1.4c0.8-0.5,3.2-1.8,4.5-2.6 c0-0.1-0.1-0.2-0.1-0.3c0,0-7.1-20.7-7.1-20.7c-0.2-0.5-0.5-0.8-0.7-0.9c-0.1,0-0.2-0.1-0.2,0C43.7,6.8,43.1,7.1,39.4,9.2z M47.2,32c-0.1,0-0.1,0-0.2-0.1c-0.3-0.3-0.6-1.2-0.7-1.8l-6.7-19.6c-0.2-0.5-0.5-0.8-0.7-0.9c-0.1,0-0.2-0.1-0.2,0 c-0.1,0-0.3,0-0.4-0.1c-0.1-0.1,0-0.3,0.1-0.4L38.4,9c0,0,0,0,0,0c4.9-2.7,5-2.8,5-2.8c0.2-0.1,0.5-0.1,0.7,0 c0.5,0.2,0.9,0.7,1.1,1.3l7.1,20.7c0,0.1,0.1,0.3,0.2,0.4c0,0.1,0.1,0.2,0,0.2c0,0.1-0.1,0.2-0.1,0.2l-4.2,2.4 C47.6,31.8,47.3,32,47.2,32z"></path> </g> <g> <path class="st0" d="M52.6,52.9l2.7,19.8c0,0,0,0.1,0,0.1c2.5-1.4,4.1-2.3,4.4-2.4c0-0.1,0.1-0.2,0.1-0.4L57,50.2c0,0,0-0.1,0-0.1 l-4.4,2.4C52.6,52.5,52.6,52.7,52.6,52.9z M54.8,73.8c-0.1,0-0.2-0.1-0.3-0.2c-0.1-0.1,0-0.3,0.1-0.4c0.1,0,0.1-0.2,0.1-0.4L52,53 c0-0.5,0.1-0.8,0.3-1c0,0,0,0,0.1,0l5-2.8c0.1-0.1,0.3,0,0.4,0.1c0.1,0.1,0.1,0.3,0,0.4c-0.1,0.1-0.1,0.2-0.1,0.4l2.7,19.8 c0.1,0.4,0,0.8-0.3,1c0,0-0.1,0.1-5.2,2.9C54.9,73.8,54.8,73.8,54.8,73.8z"></path> </g> <path class="st2" d="M36.1,72.6L36,72.3c1.3-0.7,3.2-1.8,3.3-1.8c0,0,0.1-0.2,0-0.3l-1.7-12.6c0-0.3,0-0.5,0.2-0.6l4.1-2.2l3.2-1.8 c0.1,0,0.1-0.1,0.1-0.2c0-0.2-0.1-0.6-0.4-0.8l-10.1-7.5c-0.2-0.2-0.4-0.4-0.5-0.7l-4.5-13.2c-0.1-0.3-0.3-0.5-0.5-0.6 c-0.1,0-0.1,0-0.2,0c-0.1,0-1.9,1.1-3.2,1.8L24.5,38c0,0,0,0,0,0c-0.1,0.2-0.4,0.3-0.6,0.2l-10.1-4.1c0,0-0.1,0-0.2,0 c0,0-2.2,1.2-3.3,1.8l-0.2-0.3c3.3-1.8,3.3-1.8,3.3-1.8c0.1,0,0.2-0.1,0.4,0L24,37.9c0.1,0,0.2,0,0.2,0l1.4-6.3c0,0,0-0.1,0.1-0.1 c1.2-0.7,3.2-1.8,3.3-1.8c0.1-0.1,0.3,0,0.4,0c0.3,0.1,0.5,0.4,0.6,0.8l4.5,13.2c0.1,0.2,0.2,0.4,0.4,0.5L45,51.7 c0.3,0.2,0.6,0.7,0.5,1.1c0,0.2-0.1,0.4-0.2,0.4L42,55L38,57.3c-0.1,0-0.1,0.2-0.1,0.3l1.7,12.6c0,0.3,0,0.5-0.2,0.6 C39.4,70.8,39.4,70.8,36.1,72.6z"></path> <path class="st2" d="M34.7,58.9c-0.1,0.1-0.2,0.3-0.2,0.5L36.2,72c0.1,0.6-0.4,0.7-0.8,0.2l-9-10.7c-0.2-0.2-0.4-0.3-0.5-0.3l-9,0.3 c-0.4,0-0.9-0.7-0.8-1.2l1.7-10.6c0-0.2,0-0.4-0.2-0.7l-7.3-12.4c-0.3-0.6-0.1-1.1,0.3-0.9l10.1,4.1c0.2,0.1,0.3,0,0.4-0.1l4.5-8 c0.2-0.4,0.8,0,1,0.6l4.5,13.2c0.1,0.2,0.2,0.5,0.4,0.6l10.1,7.5c0.5,0.3,0.6,1.1,0.3,1.3L34.7,58.9z"></path> <path class="st2" d="M26.2,31.6c0.2,0.1,0.5,0.4,0.6,0.7L31,44.7c0.1,0.3,0.2,0.7,0.3,0.9c0.4-0.3,2-1.1,2.9-1.7 c0-0.1-0.1-0.1-0.1-0.2l-4.5-13.2c-0.1-0.3-0.3-0.5-0.5-0.6c-0.1,0-0.1,0-0.2,0C29,30,28.7,30.2,26.2,31.6z M31.3,46 C31.2,46,31.2,46,31.3,46c-0.2-0.2-0.4-0.9-0.5-1.2l-4.3-12.4c-0.1-0.3-0.3-0.5-0.5-0.6c-0.1,0-0.1,0-0.2,0c-0.1,0-0.2,0-0.2-0.1 c0-0.1,0-0.1,0-0.2l0,0c0,0,0,0,0,0c3.1-1.7,3.1-1.7,3.2-1.7c0.1-0.1,0.3,0,0.4,0c0.3,0.1,0.5,0.4,0.6,0.8l4.5,13.2 c0,0.1,0.1,0.2,0.1,0.3c0,0,0,0.1,0,0.1c0,0,0,0.1-0.1,0.1L33,45.1C31.7,45.8,31.4,46,31.3,46z"></path> <path class="st2" d="M34.7,59.4l1.7,12.6c0,0,0,0.1,0,0.1c1-0.6,2.8-1.5,2.9-1.6c0,0,0.1-0.2,0-0.3l-1.7-12.6c0,0,0-0.1,0-0.1 L34.7,59C34.7,59.1,34.6,59.2,34.7,59.4z M36.1,72.6c-0.1,0-0.1,0-0.1-0.1c0-0.1,0-0.2,0.1-0.2c0.1,0,0.1-0.2,0.1-0.3l-1.7-12.6 c0-0.3,0-0.5,0.2-0.6c0,0,0,0,0,0l3.2-1.8c0.1,0,0.2,0,0.2,0c0,0.1,0,0.2,0,0.2c-0.1,0.1-0.1,0.2-0.1,0.3l1.7,12.6 c0,0.3,0,0.5-0.2,0.6C39.4,70.8,39.4,70.8,36.1,72.6C36.1,72.6,36.1,72.6,36.1,72.6z"></path> </svg> 