<?xml version="1.0" encoding="UTF-8"?> <!-- Generator: Adobe Illustrator 28.2.0, SVG Export Plug-In . SVG Version: 6.00 Build 0) --> <svg xmlns="http://www.w3.org/2000/svg" xmlns:xlink="http://www.w3.org/1999/xlink" id="Layer_1" x="0px" y="0px" viewBox="0 0 1710 97" style="enable-background:new 0 0 1710 97;" xml:space="preserve"> <style type="text/css"> .st0{fill:#FFFFFF;} </style> <g> <path class="st0" d="M102.9,97c-3.6,0-6.9-0.5-9.7-1.4c-2.9-0.9-6.2-3.2-9.9-6.8L29.1,35.1c-0.6-0.6-1.3-0.8-1.9-0.5 c-0.6,0.3-1,0.9-1,1.6v55.3c0,1.4-0.5,2.7-1.6,3.8c-1.1,1.1-2.4,1.6-3.8,1.6H5c-1.4,0-2.7-0.5-3.8-1.6c-1.1-1.1-1.6-2.4-1.6-3.8 V5.4c0-1.6,0.5-2.8,1.5-3.9C2.2,0.5,3.4,0,5,0h36.1c5.1,0,9.5,1.8,13.1,5.4l58.3,58.8c0.9,0.8,1.7,0.8,2.5,0l58.3-58.8 c3.9-3.6,8.3-5.4,13.3-5.4h27.6c1.4,0,2.7,0.6,3.8,1.6c1.1,1.1,1.6,2.4,1.6,3.8v86.2c0,1.4-0.5,2.7-1.6,3.8 c-1.1,1.1-2.3,1.6-3.8,1.6h-29.9c-1.5,0-2.8-0.5-3.9-1.6c-1-1.1-1.5-2.4-1.5-3.8V36.5c0-0.8-0.4-1.3-1.1-1.6 c-0.7-0.3-1.4-0.2-2,0.5l-53.5,53.6c-1.8,1.8-3.5,3.3-5.1,4.4c-1.6,1.1-3.2,1.9-4.7,2.5c-1.5,0.6-3.1,0.9-4.6,1.1 C106.3,97,104.7,97,102.9,97z"></path> <path class="st0" d="M411,0c1.4,0,2.7,0.6,3.8,1.6c1.1,1.1,1.6,2.4,1.6,3.8v51.2c0,4.3-0.8,8.4-2.5,12.4c-1.7,4-4,7.5-7,10.5 l-7.9,8c-3,3-6.4,5.3-10.4,7c-4,1.7-8.1,2.5-12.4,2.5h-93.1c-4.2,0-8.4-0.8-12.4-2.5c-4-1.7-7.5-4-10.4-7l-7.9-8 c-3-3-5.3-6.5-6.9-10.5c-1.7-4-2.5-8.2-2.5-12.4V5.4c0-1.4,0.5-2.7,1.6-3.8c1.1-1.1,2.3-1.6,3.8-1.6h29.9c1.5,0,2.8,0.6,3.9,1.6 c1,1.1,1.5,2.4,1.5,3.8v58c0,3.1,1.1,5.6,3.3,7.6l3.3,3.5c2.1,2.1,4.6,3.1,7.5,3.1h63.7c3,0,5.5-1,7.5-3.1l3.3-3.5 c2.2-1.9,3.3-4.5,3.3-7.6v-58c0-1.4,0.5-2.7,1.5-3.8c1-1.1,2.3-1.6,3.9-1.6H411z"></path> <path class="st0" d="M589.6,77.6c1,0,1.7,0.5,2,1.4c0.3,0.9,0.2,1.7-0.5,2.3L578,94.5c-1.7,1.7-3.7,2.5-6,2.5H445 c-1.4,0-2.7-0.5-3.8-1.6c-1.1-1.1-1.6-2.4-1.6-3.8V5.4c0-1.4,0.5-2.7,1.6-3.8c1.1-1.1,2.3-1.6,3.8-1.6h29.9c1.5,0,2.8,0.6,3.9,1.6 c1,1.1,1.5,2.4,1.5,3.8v69.9c0,0.6,0.2,1.2,0.7,1.7c0.4,0.5,1,0.7,1.6,0.7H589.6z"></path> <path class="st0" d="M735.5,15.7c0.6,0.6,0.8,1.4,0.5,2.3c-0.3,0.9-1,1.4-2,1.4h-66c-1.5,0-2.3,0.8-2.3,2.3v69.9 c0,1.4-0.5,2.7-1.6,3.8c-1.1,1.1-2.3,1.6-3.8,1.6h-29.9c-1.5,0-2.8-0.5-3.9-1.6c-1-1.1-1.5-2.4-1.5-3.8V21.7c0-1.6-0.8-2.3-2.5-2.3 h-49c-2.4,0-4.5-0.8-6.2-2.5L554,3.7c-0.6-0.6-0.8-1.4-0.5-2.3c0.3-0.9,1-1.4,2-1.4h161.8c1.7,0,3.2,0.6,4.4,1.9L735.5,15.7z"></path> <path class="st0" d="M751.7,5.4c0-1.4,0.5-2.7,1.6-3.8c1.1-1.1,2.3-1.6,3.8-1.6H787c1.5,0,2.8,0.6,3.9,1.6c1,1.1,1.5,2.4,1.5,3.8 v86.2c0,1.4-0.5,2.7-1.5,3.8c-1,1.1-2.3,1.6-3.9,1.6h-29.9c-1.4,0-2.7-0.5-3.8-1.6c-1.1-1.1-1.6-2.4-1.6-3.8V5.4z"></path> <path class="st0" d="M976,86.2c-3.5,3.5-7.5,6.2-12,8.1c-4.5,1.9-9.2,2.8-14.1,2.8H821.2c-1.4,0-2.7-0.5-3.8-1.6 c-1.1-1.1-1.6-2.4-1.6-3.8V5.4c0-1.4,0.5-2.7,1.6-3.8c1.1-1.1,2.3-1.6,3.8-1.6h109.5c4.9,0,9.6,0.9,14.1,2.8 c4.5,1.9,8.5,4.6,12,8.1l33.4,33.6c1.9,1.9,3.3,4.1,4.2,6.5c0.9,2.4,1.4,4.8,1.4,7.3c0,2.5-0.5,4.9-1.4,7.3 c-0.9,2.4-2.3,4.6-4.2,6.5L976,86.2z M858.9,19.4c-0.6,0-1.2,0.2-1.6,0.7c-0.5,0.5-0.7,1-0.7,1.6v53.6c0,0.6,0.2,1.2,0.7,1.7 c0.4,0.5,1,0.7,1.6,0.7H950c1.8,0,3.2-0.6,4.1-1.7l2.7-2.5c1-1,1.5-2.3,1.5-3.9c0-1.6-0.5-2.8-1.5-3.9l-41.1-41.1 c-1.5-1.7-3.4-2.9-5.5-3.8c-2.1-0.8-4.3-1.3-6.7-1.3H858.9z"></path> <path class="st0" d="M1056.7,58.2c-1.7,0-2.5,0.8-2.5,2.3v14.6c0,1.6,0.8,2.3,2.5,2.3h111.4c1,0,1.7,0.5,2,1.5 c0.3,1,0.2,1.8-0.5,2.4L1156,94.9c-1.2,1.3-2.7,1.9-4.6,1.9L1018.9,97c-1.4,0-2.7-0.5-3.8-1.6c-1.1-1.1-1.6-2.4-1.6-3.8V5.4 c0-1.4,0.5-2.7,1.6-3.8c1.1-1.1,2.3-1.6,3.8-1.6h132.6c1.8,0,3.3,0.6,4.6,1.9l13.7,13.6c0.6,0.6,0.8,1.5,0.5,2.4 c-0.3,1-1,1.5-2,1.5h-111.6c-1.7,0-2.5,0.8-2.5,2.3v14.6c0,1.6,0.8,2.3,2.5,2.3h65.4c1,0,1.7,0.5,2,1.4c0.3,0.9,0.2,1.7-0.5,2.3 l-13.7,14c-1.3,1.2-2.8,1.7-4.6,1.7L1056.7,58.2z"></path> <path class="st0" d="M1286.7,41.9c-1.2,1-1.2,2.1,0,3.3l56.4,47.9c0.8,0.6,1,1.5,0.6,2.4c-0.4,1-1.1,1.5-2.1,1.5h-45.6 c-2.1,0-3.9-0.7-5.6-2.1l-37.5-32c-0.9-0.8-1.9-0.8-2.9,0l-37.5,32c-1.7,1.4-3.5,2.1-5.6,2.1h-26.3c-1,0-1.7-0.5-2-1.5 c-0.3-1-0.1-1.8,0.7-2.4l50.8-43.3c0.5-0.4,0.8-0.9,0.8-1.6c0-0.7-0.3-1.3-0.8-1.6l-50-42.7c-0.8-0.6-1-1.5-0.7-2.4 c0.3-1,1-1.5,2-1.5h45.6c2.1,0,3.9,0.7,5.6,2.1l31.5,26.6c0.9,0.9,1.8,0.9,2.7,0l31.3-26.6c1.8-1.4,3.7-2.1,5.6-2.1h26.3 c1,0,1.7,0.5,2,1.5c0.3,1,0.1,1.8-0.7,2.4L1286.7,41.9z"></path> <path class="st0" d="M1549.2,0c3.6,0,6.9,0.4,9.7,1.3c2.9,0.8,6.1,3.1,9.7,6.9l84.6,85.2c0.6,0.6,0.8,1.4,0.5,2.3 c-0.3,0.9-1,1.4-2,1.4H1610c-5.1,0-9.5-1.8-13.1-5.4l-57.5-57.8c-0.9-1.2-1.9-1.2-3.1,0l-57.5,57.8c-3.6,3.6-8,5.4-13.1,5.4h-19.3 c-1,0-1.7-0.5-2-1.4c-0.3-0.9-0.2-1.7,0.5-2.3l84.9-85.2c1.8-1.8,3.5-3.3,5-4.4c1.5-1.1,3.1-1.9,4.6-2.5c1.5-0.6,3.1-0.9,4.7-1.1 C1545.7,0.1,1547.4,0,1549.2,0z"></path> <path class="st0" d="M1669.5,5.4c0-1.4,0.5-2.7,1.6-3.8c1.1-1.1,2.3-1.6,3.8-1.6h29.9c1.5,0,2.8,0.6,3.9,1.6c1,1.1,1.5,2.4,1.5,3.8 v86.2c0,1.4-0.5,2.7-1.5,3.8c-1,1.1-2.3,1.6-3.9,1.6h-29.9c-1.4,0-2.7-0.5-3.8-1.6c-1.1-1.1-1.6-2.4-1.6-3.8V5.4z"></path> </g> </svg> 